<?xml version="1.0" encoding="utf-8"?>
<!-- Generator: Adobe Illustrator 20.0.0, SVG Export Plug-In . SVG Version: 6.00 Build 0)  -->
<svg version="1.1" id="Blog_Listing" xmlns="http://www.w3.org/2000/svg" xmlns:xlink="http://www.w3.org/1999/xlink" x="0px"
	 y="0px" viewBox="0 0 350 385.1" style="enable-background:new 0 0 350 385.1;" xml:space="preserve">
<style type="text/css">
	.st0{fill:#424952;}
	.st1{fill:#FED907;}
	.st2{fill:#A8D2F0;}
	.st3{fill:#FFFFFF;}
</style>
<g>
	<path class="st0" d="M289.8,189.8h-11.2v-22.4H71.4v22.4H60.2V162c0-3.2,2.6-5.8,5.8-5.8h218c3.2,0,5.8,2.6,5.8,5.8V189.8z"/>
	<path class="st0" d="M273,150.6h-11.2v-16.8H88.2v16.8H77v-22.2c0-3.2,2.6-5.8,5.8-5.8h184.4c3.2,0,5.8,2.6,5.8,5.8V150.6z"/>
	<path class="st0" d="M256.2,117H245v-16.8H105V117H93.8V94.8c0-3.2,2.6-5.8,5.8-5.8h150.8c3.2,0,5.8,2.6,5.8,5.8V117z"/>
	<path class="st0" d="M239.4,83.4h-11.2V66.6H121.8v16.8h-11.2V61.2c0-3.2,2.6-5.8,5.8-5.8h117.2c3.2,0,5.8,2.6,5.8,5.8V83.4z"/>
	<polygon class="st1" points="233.8,201 217,217.8 133,217.8 116.2,201 26.6,201 26.6,324.2 323.4,324.2 323.4,201 	"/>
	<path class="st2" d="M205.8,273.8c0,6.2-5,11.2-11.2,11.2h-39.2c-6.2,0-11.2-5-11.2-11.2v-22.4h61.6V273.8z"/>
	<path class="st2" d="M155.4,279.4h39.2c3.1,0,5.6-2.5,5.6-5.6V257h-50.4v16.8C149.8,276.8,152.3,279.4,155.4,279.4z"/>
	<path class="st0" d="M265.3,61h-14.7v11.2h7.7l59.5,118.9v4.3h-86.3l-16.8,16.8h-79.4l-16.8-16.8H32.2v-4.3L91.7,72.2h7.7V61H84.7
		L21,188.4v6.9v5.6v117.2c0,6.4,5.2,11.6,11.6,11.6h284.8c6.4,0,11.6-5.2,11.6-11.6V201v-5.6v-6.9L265.3,61z M317.8,318.6H32.2v-112
		h81.7l16.8,16.8h88.6l16.8-16.8h81.7V318.6z"/>
	<path class="st3" d="M155.4,279.4h39.2c3.1,0,5.6-2.5,5.6-5.6V257h-50.4v16.8C149.8,276.8,152.3,279.4,155.4,279.4z"/>
	<path class="st0" d="M138.6,253.5v20.3c0,9.3,7.5,16.8,16.8,16.8h39.2c9.3,0,16.8-7.5,16.8-16.8v-20.3c0-4.3-3.5-7.7-7.7-7.7h-57.3
		C142.1,245.8,138.6,249.2,138.6,253.5z M200.2,273.8c0,3.1-2.5,5.6-5.6,5.6h-39.2c-3.1,0-5.6-2.5-5.6-5.6V257h50.4V273.8z"/>
</g>
</svg>
