<?xml version="1.0" encoding="utf-8"?>
<!-- Generator: Adobe Illustrator 20.0.0, SVG Export Plug-In . SVG Version: 6.00 Build 0)  -->
<svg version="1.2" baseProfile="tiny" id="Layer_1" xmlns="http://www.w3.org/2000/svg" xmlns:xlink="http://www.w3.org/1999/xlink"
	 x="0px" y="0px" viewBox="0 0 100 100" xml:space="preserve">
<g>
	<g>
		<path fill="#D6D8DA" d="M6.3,96c-0.7,0-1.4-0.3-2-0.8c-1.1-1.1-1.1-2.9,0-4L91.7,3.9c1.1-1.1,2.9-1.1,4,0c1.1,1.1,1.1,2.9,0,4
			L8.3,95.2C7.8,95.8,7,96,6.3,96z"/>
	</g>
	<g>
		<path fill="#D6D8DA" d="M93.7,96c-0.7,0-1.4-0.3-2-0.8L4.3,7.9c-1.1-1.1-1.1-2.9,0-4s2.9-1.1,4,0l87.4,87.3c1.1,1.1,1.1,2.9,0,4
			C95.1,95.8,94.4,96,93.7,96z"/>
	</g>
</g>
</svg>
