<?xml version="1.0" encoding="utf-8"?>
<!-- Generator: Adobe Illustrator 20.0.0, SVG Export Plug-In . SVG Version: 6.00 Build 0)  -->
<svg version="1.1" xmlns="http://www.w3.org/2000/svg" xmlns:xlink="http://www.w3.org/1999/xlink" x="0px" y="0px"
	 viewBox="0 0 350 385.1" style="enable-background:new 0 0 350 385.1;" xml:space="preserve">
<style type="text/css">
	.st0{display:none;}
	.st1{display:inline;}
	.st2{fill:#424952;}
	.st3{fill:#FED907;}
	.st4{fill:#A8D2F0;}
	.st5{fill:#FFFFFF;}
	.st6{fill:#1AA4DE;}
	.st7{fill:none;}
	.st8{fill:#50B857;}
</style>
<g id="Blog_Listing" class="st0">
	<g class="st1">
		<path class="st2" d="M289.8,189.8h-11.2v-22.4H71.4v22.4H60.2V162c0-3.2,2.6-5.8,5.8-5.8h218c3.2,0,5.8,2.6,5.8,5.8V189.8z"/>
		<path class="st2" d="M273,150.6h-11.2v-16.8H88.2v16.8H77v-22.2c0-3.2,2.6-5.8,5.8-5.8h184.4c3.2,0,5.8,2.6,5.8,5.8V150.6z"/>
		<path class="st2" d="M256.2,117H245v-16.8H105V117H93.8V94.8c0-3.2,2.6-5.8,5.8-5.8h150.8c3.2,0,5.8,2.6,5.8,5.8V117z"/>
		<path class="st2" d="M239.4,83.4h-11.2V66.6H121.8v16.8h-11.2V61.2c0-3.2,2.6-5.8,5.8-5.8h117.2c3.2,0,5.8,2.6,5.8,5.8V83.4z"/>
		<polygon class="st3" points="233.8,201 217,217.8 133,217.8 116.2,201 26.6,201 26.6,324.2 323.4,324.2 323.4,201 		"/>
		<path class="st4" d="M205.8,273.8c0,6.2-5,11.2-11.2,11.2h-39.2c-6.2,0-11.2-5-11.2-11.2v-22.4h61.6V273.8z"/>
		<path class="st4" d="M155.4,279.4h39.2c3.1,0,5.6-2.5,5.6-5.6V257h-50.4v16.8C149.8,276.8,152.3,279.4,155.4,279.4z"/>
		<path class="st2" d="M265.3,61h-14.7v11.2h7.7l59.5,118.9v4.3h-86.3l-16.8,16.8h-79.4l-16.8-16.8H32.2v-4.3L91.7,72.2h7.7V61H84.7
			L21,188.4v6.9v5.6v117.2c0,6.4,5.2,11.6,11.6,11.6h284.8c6.4,0,11.6-5.2,11.6-11.6V201v-5.6v-6.9L265.3,61z M317.8,318.6H32.2
			v-112h81.7l16.8,16.8h88.6l16.8-16.8h81.7V318.6z"/>
		<path class="st5" d="M155.4,279.4h39.2c3.1,0,5.6-2.5,5.6-5.6V257h-50.4v16.8C149.8,276.8,152.3,279.4,155.4,279.4z"/>
		<path class="st2" d="M138.6,253.5v20.3c0,9.3,7.5,16.8,16.8,16.8h39.2c9.3,0,16.8-7.5,16.8-16.8v-20.3c0-4.3-3.5-7.7-7.7-7.7
			h-57.3C142.1,245.8,138.6,249.2,138.6,253.5z M200.2,273.8c0,3.1-2.5,5.6-5.6,5.6h-39.2c-3.1,0-5.6-2.5-5.6-5.6V257h50.4V273.8z"
			/>
	</g>
</g>
<g id="Blog_Post" class="st0">
	<g class="st1">
		<path class="st6" d="M132.9,152.5c-0.8,4.8-2.2,9.8-4.3,14.9c-3.1-12.4-4.2-23.1-18.9-33.8c-5.4-3.3-11.2-6.1-17.3-8.4
			c-23.8-8.9-45.6-15-62.6-34.7c-5.7,14.2-5,32-0.8,49.6c5.6,17.1,15.6,21.5,26.6,28.4c-6.2,0.4-12-0.1-17.3-1.1
			c4.6,10.5,10.1,19.9,15.6,27.3c16.5,20.9,30.8,20.9,47.8,23.7c-4.5,2.6-9,4.6-13.4,6.2c14.9,8.8,58.3,18,76.2,21.3
			c0.1,0.2,0.1,0.2,0,0C170.8,224.9,156.1,177.1,132.9,152.5z"/>
		<path class="st2" d="M327.4,100.7c0-16.9-13.8-30.7-30.7-30.7H138.2c-16.9,0-30.7,13.8-30.7,30.7V116h10.2v-15.3
			c0-11.3,9.2-20.5,20.5-20.5h133h2.7c-4.9,5.4-7.8,12.6-7.8,20.5v184.2c0,11.3-9.2,20.5-20.5,20.5c-11.3,0-20.5-9.2-20.5-20.5v-5.1
			H117.7v-25.6h-10.2v25.6H76.8v5.1c0,16.9,13.8,30.7,30.7,30.7h138.1c16.9,0,30.7-13.8,30.7-30.7V110.9h51.2V100.7z M107.5,305.3
			c-9.5,0-17.5-6.5-19.8-15.3h127.7c1,5.8,3.6,11.1,7.4,15.3H107.5z M276.3,100.7c0-11.3,9.2-20.5,20.5-20.5
			c11.3,0,20.5,9.2,20.5,20.5H276.3z"/>
		<path class="st7" d="M70.2,143.1l90.7,90.7c-0.1-19.4-10.1-49.7-25.4-70.2c-0.6,2-1.4,3.9-2.2,5.8l-5.9,14.2l-3.8-14.9
			c-0.3-1.4-0.7-2.7-1-4c-2.5-10.3-4.4-18.4-16-26.9c-4.9-3-10.4-5.7-16.1-7.8c-2.8-1.1-5.7-2.1-8.4-3.1
			C64,120.3,46.8,114,32.1,100.3c-2.3,10.8-1.7,23.9,1.8,38.5c4.3,13,11.6,17.5,20.8,23.1c1.2,0.7,2.4,1.4,3.6,2.2l13.6,8.5l-16,0.9
			c-3,0.2-5.9,0.2-8.9,0c3.4,6.7,7.2,12.9,11.1,18.1c13.5,17,24.9,18.7,39.3,20.9c1.7,0.3,3.4,0.5,5.2,0.8l14.2,2.3l-12.5,7.2
			c-1.1,0.6-2.2,1.2-3.3,1.8c13.3,4.9,33.3,9.8,49.4,13.2l-87.4-87.4c-2-2-2-5.2,0-7.2C64.9,141.1,68.2,141.1,70.2,143.1z"/>
		<path class="st2" d="M187.8,260.8l-17.5-17.5c4.5-25-11.5-70.7-33.7-94.3l-7-7.4l-1.2,6.9c-2.8-6.4-7.4-12.9-16.1-19.2
			c-5.8-3.5-11.9-6.5-18.1-8.8c-2.9-1.1-5.7-2.1-8.5-3.1c-20.3-7.4-37.9-13.8-52-30.2l-5.5-6.4L25,88.6c-5.6,13.9-6,32.1-0.9,53.1
			c3.1,9.6,7.7,15.7,12.8,20.3l-7.2-1.3l3.9,8.8c4.7,10.6,10.3,20.4,16.3,28.4c11.9,15.1,23,20.2,34.2,22.7l-7.8,2.8l9.4,5.5
			c16.8,9.9,64.7,19.4,75.7,21.5l0.5,0.8l1.7-0.1l16.9,16.9c1,1,2.3,1.5,3.6,1.5c1.3,0,2.6-0.5,3.6-1.5
			C189.8,266,189.8,262.8,187.8,260.8z M62.9,150.4l87.4,87.4c-16.1-3.4-36.1-8.2-49.4-13.2c1.1-0.6,2.2-1.2,3.3-1.8l12.5-7.2
			l-14.2-2.3c-1.8-0.3-3.5-0.5-5.2-0.8c-14.4-2.1-25.9-3.8-39.3-20.9c-3.9-5.2-7.7-11.4-11.1-18.1c3,0.2,6,0.2,8.9,0l16-0.9
			l-13.6-8.5c-1.2-0.8-2.4-1.5-3.6-2.2c-9.2-5.6-16.5-10-20.8-23.1c-3.5-14.6-4.1-27.8-1.8-38.5c14.7,13.7,31.9,20,50.1,26.6
			c2.8,1,5.6,2,8.4,3.1c5.6,2.1,11.1,4.8,16.1,7.8c11.6,8.4,13.6,16.6,16,26.9c0.3,1.3,0.6,2.7,1,4l3.8,14.9l5.9-14.2
			c0.8-1.9,1.5-3.8,2.2-5.8c15.3,20.5,25.2,50.9,25.4,70.2l-90.7-90.7c-2-2-5.2-2-7.2,0C60.9,145.1,60.9,148.4,62.9,150.4z"/>
	</g>
</g>
<g id="Confirmation">
	<g>
		<path class="st2" d="M294.4,357H48.8c-15,0-27.3-12.2-27.3-27.3V186.4c0-2.5,1.4-4.9,3.7-6.1c2.3-1.2,5-1,7.1,0.5
			c25.1,17.7,91.6,64.4,97.6,67.9c9.9,5.8,25.2,12.7,41.8,12.7c16.7,0,31.9-6.9,41.8-12.7h0c6-3.5,72.5-50.3,97.6-68
			c2.1-1.5,4.8-1.7,7.1-0.5c2.3,1.2,3.7,3.5,3.7,6.1v143.3C321.7,344.8,309.5,357,294.4,357z M35.1,199.6v130.1
			c0,7.5,6.1,13.6,13.6,13.6h245.6c7.5,0,13.6-6.1,13.6-13.6V199.6c-24.9,17.5-81.5,57.3-87.8,61l0,0c-11.3,6.6-29,14.5-48.7,14.5
			c-19.7,0-37.3-7.9-48.7-14.6C116.7,256.9,60,217.1,35.1,199.6z"/>
		
			<rect x="246.6" y="240.5" transform="matrix(0.7071 -0.7071 0.7071 0.7071 -129.9706 263.818)" class="st2" width="13.6" height="96.5"/>
		
			<rect x="41.5" y="282" transform="matrix(0.7071 -0.7071 0.7071 0.7071 -177.9365 148.0179)" class="st2" width="96.5" height="13.6"/>
		<path class="st2" d="M321.7,186.4h-13.6v-6.8c0-5-2.3-9.1-7.3-13.1l-38-32.7l8.9-10.3l37.8,32.5c8.1,6.4,12.3,14.4,12.3,23.6
			V186.4z"/>
		<path class="st2" d="M35.1,186.4H21.5v-6.8c0-9.2,4.2-17.2,12.5-23.8l37.6-32.3l8.9,10.3l-37.8,32.5c-5.2,4.1-7.5,8.3-7.5,13.3
			V186.4z"/>
		<path class="st2" d="M301.2,43.8l-191.1-0.7c-22.6,0-40.9,18.4-40.9,40.9v136.5h13.6V84.1c0-15.1,12.2-27.3,27.3-27.3h156.9v0h3.6
			c-6.5,7.2-10.4,16.8-10.4,27.3v136.5h13.6V84.1c0-13.9,10.5-25.3,24-27c9.9,1.6,17,9.7,17,20.1h-27.3v13.6h40.9V77.3
			C328.5,60.5,317,46.9,301.2,43.8z"/>
	</g>
	<g>
		<path class="st2" d="M173.7,204.1c-32.9,0-59.6-26.7-59.6-59.6s26.7-59.6,59.6-59.6c32.9,0,59.6,26.7,59.6,59.6
			S206.5,204.1,173.7,204.1z"/>
		<path class="st8" d="M173.7,94.8c-27.4,0-49.7,22.3-49.7,49.7s22.3,49.7,49.7,49.7c27.4,0,49.7-22.3,49.7-49.7
			S201.1,94.8,173.7,94.8z"/>
		<g>
			<path class="st2" d="M153.8,140.6c-0.8,0-1.5,0.3-2,0.8l-4.5,4.5c-1.1,1.1-1.1,3,0,4.1l15.7,15.7c0.5,0.5,1.3,0.9,2,0.9
				c0.8,0,1.6-0.4,2.1-0.9l33-35.5c1.1-1.1,1-2.9-0.1-4v0l-4.5-4.5c-0.5-0.5-1.2-0.9-2.1-0.8c-0.8,0-1.5,0.4-2,0.9l-26.3,28.9
				l-9.3-9.3C155.4,140.9,154.6,140.6,153.8,140.6L153.8,140.6z"/>
		</g>
	</g>
</g>
</svg>
