<?xml version="1.0" encoding="utf-8"?>
<!-- Generator: Adobe Illustrator 20.0.0, SVG Export Plug-In . SVG Version: 6.00 Build 0)  -->
<svg version="1.2" baseProfile="tiny" id="Layer_1" xmlns="http://www.w3.org/2000/svg" xmlns:xlink="http://www.w3.org/1999/xlink"
	 x="0px" y="0px" viewBox="0 0 23 18" xml:space="preserve">
<g id="email-7">
	<path fill="#424A53" d="M22,0.3H1c-0.5,0-0.9,0.4-0.9,0.9v15.7c0,0.5,0.4,0.9,0.9,0.9h21c0.5,0,0.9-0.4,0.9-0.9V1.1
		C22.8,0.7,22.5,0.3,22,0.3z M1,3.6l7.8,5.7L1,14.6V3.6z M22,16.9H1v-1.2l8.6-5.7l1.9,1.4l1.9-1.4l8.6,5.7V16.9z M22,14.6l-7.8-5.2
		L22,3.6V14.6z M22,2.5l-10.5,7.7L1,2.5V1.1H22V2.5z"/>
</g>
</svg>
