<?xml version="1.0" encoding="utf-8"?>
<!-- Generator: Adobe Illustrator 20.0.0, SVG Export Plug-In . SVG Version: 6.00 Build 0)  -->
<svg version="1.2" baseProfile="tiny" id="Layer_1" xmlns="http://www.w3.org/2000/svg" xmlns:xlink="http://www.w3.org/1999/xlink"
	 x="0px" y="0px" viewBox="0 0 384 384" xml:space="preserve">
<g>
	<g>
		<g>
			<g>
				<rect x="80" y="290.8" fill="#F9FAFC" width="222.2" height="15.3"/>
			</g>
		</g>
		<g>
			<g>
				<path fill="#D6D8DA" d="M302.1,310h-95.8v-7.7h91.9v-11.5h7.7v15.3C305.9,308.2,304.2,310,302.1,310z"/>
			</g>
			<g>
				<path fill="#D6D8DA" d="M168.1,310H80c-2.1,0-3.8-1.7-3.8-3.8v-15.3h7.7v11.5h84.3V310z"/>
			</g>
		</g>
	</g>
	<g>
		<rect x="72.3" y="126.1" fill="#FFFFFF" width="237.5" height="164.7"/>
	</g>
	<g>
		<path fill="#D6D8DA" d="M152.7,294.6H72.3c-2.1,0-3.8-1.7-3.8-3.8V126.1c0-2.1,1.7-3.8,3.8-3.8h80.4v7.7H76.1v157h76.6V294.6z"/>
	</g>
	<g>
		<path fill="#D6D8DA" d="M309.8,294.6h-88.1V287h84.3v-157h-84.3v-7.7h88.1c2.1,0,3.8,1.7,3.8,3.8v164.7
			C313.6,292.9,311.9,294.6,309.8,294.6z"/>
	</g>
	<g>
		<rect x="99.1" y="137.6" fill="#D6D8DA" width="53.6" height="7.7"/>
	</g>
	<g>
		<rect x="83.8" y="152.9" fill="#D6D8DA" width="68.9" height="7.7"/>
	</g>
	<g>
		<rect x="83.8" y="256.3" fill="#D6D8DA" width="53.6" height="7.7"/>
	</g>
	<g>
		<rect x="83.8" y="241" fill="#D6D8DA" width="68.9" height="7.7"/>
	</g>
	<g>
		<rect x="83.8" y="183.6" fill="#D6D8DA" width="68.9" height="49.8"/>
	</g>
	<g>
		<rect x="221.7" y="210.4" fill="#D6D8DA" width="76.6" height="7.7"/>
	</g>
	<g>
		<rect x="237" y="241" fill="#D6D8DA" width="61.3" height="7.7"/>
	</g>
	<g>
		<rect x="221.7" y="256.3" fill="#D6D8DA" width="76.6" height="7.7"/>
	</g>
	<g>
		<g>
			<path fill="#F9FAFC" d="M164.2,107v19.2h46V107c0-6.3-5.1-11.5-11.5-11.5h-23C169.4,95.5,164.2,100.6,164.2,107z"/>
		</g>
		<g>
			<polygon fill="#FFFFFF" points="187.2,332.9 164.2,290.8 210.2,290.8 			"/>
		</g>
		<g>
			<rect x="164.2" y="126.1" fill="#F9FAFC" width="46" height="164.7"/>
		</g>
		<g>
			<path fill="#D6D8DA" d="M214,290.8h-7.7V129.9h-38.3v160.9h-7.7V126.1c0-2.1,1.7-3.8,3.8-3.8h46c2.1,0,3.8,1.7,3.8,3.8V290.8z"/>
		</g>
		<g>
			<rect x="175.7" y="126.1" fill="#D6D8DA" width="7.7" height="164.7"/>
		</g>
		<g>
			<rect x="191" y="126.1" fill="#D6D8DA" width="7.7" height="164.7"/>
		</g>
		<g>
			<path fill="#D6D8DA" d="M187.2,336.8c-1.4,0-2.7-0.8-3.4-2l-23-42.1c-0.6-1.2-0.6-2.6,0.1-3.8c0.7-1.2,1.9-1.9,3.3-1.9h46
				c1.4,0,2.6,0.7,3.3,1.9c0.7,1.2,0.7,2.6,0.1,3.8l-23,42.1C189.9,336,188.6,336.8,187.2,336.8z M170.7,294.6l16.5,30.3l16.5-30.3
				H170.7z"/>
		</g>
		<g>
			<path fill="#D6D8DA" d="M210.2,129.9h-46c-2.1,0-3.8-1.7-3.8-3.8V107c0-8.5,6.9-15.3,15.3-15.3h23c8.5,0,15.3,6.9,15.3,15.3v19.2
				C214,128.2,212.3,129.9,210.2,129.9z M168.1,122.3h38.3V107c0-4.2-3.4-7.7-7.7-7.7h-23c-4.2,0-7.7,3.4-7.7,7.7V122.3z"/>
		</g>
		<g>
			<rect x="183.4" y="317.6" fill="#D6D8DA" width="7.7" height="7.7"/>
		</g>
	</g>
	<g>
		<path fill="#D6D8DA" d="M294.5,202.7h-68.9c-2.1,0-3.8-1.7-3.8-3.8v-57.5c0-2.1,1.7-3.8,3.8-3.8h68.9c2.1,0,3.8,1.7,3.8,3.8v57.5
			C298.3,201,296.6,202.7,294.5,202.7z M229.3,195.1h61.3v-49.8h-61.3V195.1z"/>
	</g>
	<g>
		<polygon fill="#D6D8DA" points="283,233.4 271.5,225.7 260,233.4 260,122.3 283,122.3 		"/>
	</g>
</g>
<rect x="48.7" y="44.4" fill="none" stroke="#F9FAFC" stroke-width="2" stroke-linecap="round" stroke-linejoin="round" stroke-miterlimit="10" width="26.8" height="26.8"/>
<ellipse transform="matrix(2.333994e-02 -0.9997 0.9997 2.333994e-02 183.6308 522.532)" fill="none" stroke="#F9FAFC" stroke-width="2" stroke-linecap="round" stroke-linejoin="round" stroke-miterlimit="10" cx="359.3" cy="167.3" rx="20.7" ry="20.7"/>
<ellipse transform="matrix(2.333994e-02 -0.9997 0.9997 2.333994e-02 158.6764 341.9055)" fill="#F9FAFC" cx="254.3" cy="89.7" rx="3.6" ry="3.6"/>
<ellipse transform="matrix(2.333994e-02 -0.9997 0.9997 2.333994e-02 -168.5829 197.4302)" fill="#F9FAFC" cx="16.8" cy="185" rx="3.6" ry="3.6"/>
<ellipse transform="matrix(2.333994e-02 -0.9997 0.9997 2.333994e-02 128.3799 582.6353)" fill="#F9FAFC" cx="362.4" cy="225.6" rx="3.6" ry="3.6"/>
<polygon fill="none" stroke="#F9FAFC" stroke-width="2" stroke-linecap="round" stroke-linejoin="round" stroke-miterlimit="10" points="
	23.5,300.6 33.2,303.8 42.9,307 23.5,307 4,307 13.7,303.8 "/>
<g>
	<g>
		<path fill="none" stroke="#F9FAFC" stroke-width="2" stroke-linecap="round" stroke-linejoin="round" stroke-miterlimit="10" d="
			M333.5,332.9c-0.4,0-0.7-0.3-0.7-0.7v-30.7c0-0.4,0.3-0.7,0.7-0.7c0.4,0,0.7,0.3,0.7,0.7v30.7
			C334.2,332.6,333.9,332.9,333.5,332.9z"/>
	</g>
	<g>
		<path fill="none" stroke="#F9FAFC" stroke-width="2" stroke-linecap="round" stroke-linejoin="round" stroke-miterlimit="10" d="
			M348.8,317.6h-30.7c-0.4,0-0.7-0.3-0.7-0.7c0-0.4,0.3-0.7,0.7-0.7h30.7c0.4,0,0.7,0.3,0.7,0.7
			C349.5,317.2,349.2,317.6,348.8,317.6z"/>
	</g>
</g>
</svg>
