<?xml version="1.0" encoding="utf-8"?>
<!-- Generator: Adobe Illustrator 20.0.0, SVG Export Plug-In . SVG Version: 6.00 Build 0)  -->
<svg version="1.2" baseProfile="tiny" id="Layer_1" xmlns="http://www.w3.org/2000/svg" xmlns:xlink="http://www.w3.org/1999/xlink"
	 x="0px" y="0px" viewBox="0 0 95 68" xml:space="preserve">
<g>
	<g>
		<path fill="#35434C" d="M47.5,67.2c-21.4,0-40-13.1-46.4-32.6c-0.1-0.4-0.1-0.9,0-1.3c6.4-19.5,25-32.6,46.4-32.6
			s40,13.1,46.4,32.6c0.1,0.4,0.1,0.9,0,1.3C87.5,54.1,68.9,67.2,47.5,67.2z M5.3,34c6,17.4,22.8,29,42.2,29s36.2-11.6,42.2-29
			c-6-17.4-22.9-29-42.2-29S11.3,16.6,5.3,34z"/>
	</g>
	<g>
		<g>
			<path fill="#35434C" d="M47.5,54.8c-11.4,0-20.8-9.3-20.8-20.8c0-1.2,0.9-2.1,2.1-2.1S31,32.8,31,34c0,9.1,7.4,16.5,16.5,16.5
				c1.2,0,2.1,0.9,2.1,2.1C49.6,53.8,48.7,54.8,47.5,54.8z"/>
		</g>
		<g>
			<path fill="#35434C" d="M66.1,36.1C65,36.1,64,35.2,64,34c0-9.1-7.4-16.5-16.5-16.5c-1.2,0-2.1-0.9-2.1-2.1s0.9-2.1,2.1-2.1
				c11.4,0,20.8,9.3,20.8,20.8C68.3,35.2,67.3,36.1,66.1,36.1z"/>
		</g>
	</g>
	<g>
	</g>
</g>
</svg>
