<svg id="Layer_1" data-name="Layer 1" xmlns="http://www.w3.org/2000/svg" viewBox="0 0 693.45 144.24"><defs><style>.cls-1{fill:#181C1F;}</style></defs><title>Timblee-logo</title><path class="cls-1" d="M195.3,51.67H52.67A10.27,10.27,0,0,0,42.4,61.92V185.65a10.27,10.27,0,0,0,10.27,10.25H195.3a10.27,10.27,0,0,0,10.27-10.25V61.92A10.27,10.27,0,0,0,195.3,51.67ZM99,65.42h94.38a3.13,3.13,0,0,1,0,6.26H99a3.13,3.13,0,0,1,0-6.26Zm-22.62-3.7a6.83,6.83,0,1,1-6.83,6.83A6.83,6.83,0,0,1,76.38,61.72Zm-18.08,0a6.83,6.83,0,1,1-6.83,6.83A6.83,6.83,0,0,1,58.3,61.72ZM196.47,185.65a1.16,1.16,0,0,1-1.17,1.15H52.67a1.16,1.16,0,0,1-1.17-1.15V90.36h145Z" transform="translate(-42.4 -51.67)"/><path class="cls-1" d="M167.53,128.56a5.16,5.16,0,0,0-7.24-.94,60.27,60.27,0,0,1-72.92.43,5.16,5.16,0,0,0-6.2,8.25,70.59,70.59,0,0,0,85.42-.51,5.16,5.16,0,0,0,.94-7.24Z" transform="translate(-42.4 -51.67)"/><path class="cls-1" d="M464,134.18a67,67,0,0,0-.55-8.79c-1-7.26-3.65-13.73-9.8-18.23-4.79-3.5-10.3-4.72-16.11-4.72-10.35,0-18.45,4.22-24,13.11-.56.91-1.07,1.85-1.69,2.93-6.45-19.7-35.62-22-46.76-2.91l-.55,0c0-2.24.13-4.49,0-6.71a9.92,9.92,0,0,0-1.14-3.8c-.79-1.46-2.83-1.91-4.59-1.39s-1,1.89-1.05,2.92q-.05,31,0,62c0,.8,0,1.59.1,2.38.22,2.21,1,2.91,3.14,3,2.87.1,3.86-.86,3.86-3.8,0-14.47,0-28.93,0-43.4a7.56,7.56,0,0,1,.76-3.32c4.94-9.58,12.62-14.71,23.63-14.27,8.38.33,14.8,5.21,16.84,13.34A45.68,45.68,0,0,1,407.3,133c.14,12.38,0,24.76.06,37.14,0,2.84.8,3.73,3.29,3.77,2.81.05,3.69-.81,3.69-3.74,0-14.34,0-28.69,0-43a8.72,8.72,0,0,1,.62-3.38c3-6.83,7.94-11.68,15.15-13.68,7.74-2.15,15.16-1.5,21.08,4.68,4.22,4.4,5.48,10.09,5.55,15.94.16,13,.08,26,.12,39a5.11,5.11,0,0,0,.3,2.33,3.68,3.68,0,0,0,1.88,1.75c3.07.86,4.69-.37,4.9-3.52,0-.55,0-1.1,0-1.65C464,157.1,464,145.64,464,134.18Z" transform="translate(-42.4 -51.67)"/><path class="cls-1" d="M460.8,174.91a7.32,7.32,0,0,1-2-.3,4.57,4.57,0,0,1-2.42-2.18A5,5,0,0,1,456,170v-.28q0-6.32,0-12.65c0-8.63,0-17.55-.11-26.33-.08-6.77-1.77-11.64-5.3-15.33-5.1-5.33-11.71-6.79-20.19-4.43-6.66,1.85-11.56,6.28-14.57,13.17a7.89,7.89,0,0,0-.55,3q0,14.11,0,28.22,0,7.4,0,14.81c0,1.82-.32,2.91-1.08,3.65a4.83,4.83,0,0,1-3.53,1c-3-.06-4.17-1.37-4.18-4.68q0-5.63,0-11.27c0-8.48,0-17.25-.07-25.87a44.24,44.24,0,0,0-1.19-10.32c-1.91-7.6-7.89-12.34-16-12.66-10.37-.43-17.8,4.09-22.79,13.78a6.63,6.63,0,0,0-.66,2.91q-.05,15,0,30v13.38c0,1.8-.35,2.94-1.14,3.7s-1.9,1.06-3.65,1c-2.62-.09-3.75-1.15-4-3.79-.07-.71-.1-1.5-.11-2.47v-4q0-29,0-58a5,5,0,0,0-.05-.58c-.1-.84-.32-2.59,1.75-3.21s4.58-.15,5.64,1.83a10.79,10.79,0,0,1,1.24,4.16c.12,1.52.11,3,.08,4.54a27.53,27.53,0,0,1,25.89-11.62c9.48,1,17.23,6.57,20.66,14.69.25-.44.5-.86.76-1.28,5.56-9,13.88-13.53,24.72-13.53h0c6.7,0,12.14,1.6,16.65,4.89,5.66,4.14,9,10.3,10.17,18.84a67.23,67.23,0,0,1,.55,8.91h0c0,8.43,0,17,0,25.27v9.42c0,.47,0,.95,0,1.41a5,5,0,0,1-1.79,4A3.87,3.87,0,0,1,460.8,174.91Zm-23.15-66.85a19,19,0,0,1,14.24,6.06c3.81,4,5.71,9.4,5.8,16.56.11,8.79.11,17.71.11,26.35q0,6.32,0,12.64v.3a3.88,3.88,0,0,0,.19,1.6,2.84,2.84,0,0,0,1.33,1.31,3.24,3.24,0,0,0,2.72-.1,3.35,3.35,0,0,0,1-2.61c0-.43,0-.86,0-1.29v-9.42c0-8.28,0-16.84,0-25.26h0a65.48,65.48,0,0,0-.54-8.67c-1.12-8.13-4.12-13.74-9.44-17.63-4.18-3.06-9.28-4.55-15.58-4.55h0c-10.17,0-18,4.27-23.18,12.68-.38.61-.73,1.23-1.11,1.91l-1.58,2.75-.63-1.92c-2.76-8.43-10.36-14.29-19.83-15.29A25.7,25.7,0,0,0,365.89,116l-.28.48-2-.11v-.86c0-.67,0-1.34,0-2,0-1.53.05-3.11-.07-4.63a9,9,0,0,0-1-3.45c-.53-1-2.05-1.39-3.54-1-.53.16-.59.24-.47,1.25a6.45,6.45,0,0,1,.07.81q0,29,0,58v4a22.74,22.74,0,0,0,.1,2.29c.17,1.75.56,2.11,2.27,2.17a3.25,3.25,0,0,0,2.34-.5,3.38,3.38,0,0,0,.59-2.4V156.7q0-15,0-30a8.48,8.48,0,0,1,.86-3.74c5.27-10.23,13.48-15.2,24.47-14.75,9,.36,15.57,5.6,17.68,14A46,46,0,0,1,408.21,133c.1,8.63.08,17.41.07,25.89q0,5.63,0,11.26c0,2.47.51,2.84,2.4,2.87a3.21,3.21,0,0,0,2.23-.47,3.43,3.43,0,0,0,.54-2.36q0-7.4,0-14.81,0-14.11,0-28.23a9.67,9.67,0,0,1,.7-3.74c3.23-7.42,8.53-12.19,15.74-14.19A29,29,0,0,1,437.65,108.06Z" transform="translate(-42.4 -51.67)"/><path class="cls-1" d="M522.12,102.66c-10.38-1.12-19.55,1.58-26.83,9.41-1.56,1.68-2.89,3.57-4.56,5.65v-1.87q0-11.95,0-23.9c0-3.86.09-7.72,0-11.58a13.53,13.53,0,0,0-1-4.61c-.72-1.75-2.91-2.44-4.9-1.93s-1.1,2.11-1.1,3.2q-.07,46,0,92.09c0,.61,0,1.23,0,1.84a2.81,2.81,0,0,0,2.92,2.9c2.84.23,4-.77,4-3.65,0-3.3,0-6.61,0-10.18,1.5,2,2.69,3.86,4.14,5.47,11.81,13.13,38.54,13.68,50.59-5.22,5.25-8.24,6.72-17.34,5.7-26.95C549.33,117.39,538.34,104.42,522.12,102.66Zm22.14,37.15c-.22,7.32-2,14.24-7,19.88-7.63,8.73-17.4,10.91-28.18,7.78-10.45-3-16.78-10.24-18.3-21.17-.43-3.06-.07-6.24-.07-9.36h-.13a31,31,0,0,0,0-4c-.72-5.42,1.62-9.75,4.76-13.81,10.06-13,29.58-14.24,40.89-2.42C542.37,123.1,544.52,131.12,544.25,139.81Z" transform="translate(-42.4 -51.67)"/><path class="cls-1" d="M517.83,175.87c-9.32,0-18.22-3.61-23.76-9.76a37.72,37.72,0,0,1-2.56-3.29v.49c0,2.36,0,4.63,0,6.91a4,4,0,0,1-5,4.55A3.7,3.7,0,0,1,482.8,171a14,14,0,0,1,0-1.44V156.94q0-40,0-79.9a4.34,4.34,0,0,0-.08-.67c-.15-.91-.46-2.81,1.86-3.41,2.54-.65,5.11.4,6,2.46a14.32,14.32,0,0,1,1,4.92c.1,2.78.08,5.59.06,8.32,0,1.1,0,2.2,0,3.29v23.14c1-1.29,1.94-2.51,3-3.64,7.11-7.64,16.39-10.9,27.59-9.69h0c15.95,1.73,27.89,14.38,29.72,31.48,1.13,10.6-.78,19.6-5.84,27.53a32.85,32.85,0,0,1-25.3,15C519.81,175.83,518.82,175.87,517.83,175.87ZM489.7,157.33l1.63,2.16c.5.66,1,1.31,1.41,1.94a39.7,39.7,0,0,0,2.68,3.47c5.75,6.39,15.41,9.86,25.23,9a31.05,31.05,0,0,0,23.92-14.15c4.83-7.57,6.65-16.19,5.56-26.37-1.73-16.24-13-28.24-28.12-29.88h0c-10.59-1.14-19.37,1.92-26.07,9.12-1,1.1-2,2.32-3,3.62-.49.64-1,1.3-1.55,2l-1.61,2V91.95c0-1.1,0-2.2,0-3.3,0-2.71,0-5.5-.06-8.24a12.68,12.68,0,0,0-.9-4.29c-.51-1.23-2.15-1.83-3.84-1.4-.66.17-.7.29-.53,1.37a5.87,5.87,0,0,1,.1,1q-.06,40,0,79.9v12.69a12,12,0,0,0,0,1.25c.13,1.42.67,2,2.1,2.08a2.26,2.26,0,0,0,3-2.76c0-2.27,0-4.54,0-6.89ZM518,169.71a32.81,32.81,0,0,1-9.15-1.38c-10.83-3.15-17.38-10.72-18.94-21.91a37.65,37.65,0,0,1-.15-6.56c0-.67,0-1.35.06-2h-.12v-.9c0-.43,0-.87,0-1.31a15.92,15.92,0,0,0,0-2.61c-.81-6.09,2-10.74,4.94-14.48a28.18,28.18,0,0,1,20.86-10.89,27.57,27.57,0,0,1,21.4,8.4c5.79,6.05,8.57,14.05,8.28,23.78-.26,8.52-2.61,15.21-7.19,20.45C532.51,166.53,525.71,169.71,518,169.71ZM491.53,136h.11v.9c0,1,0,2-.07,3a36.37,36.37,0,0,0,.13,6.25c1.48,10.58,7.42,17.45,17.66,20.42,11,3.18,20.12.66,27.25-7.51,4.29-4.91,6.49-11.23,6.74-19.32h0c.29-9.36-2.26-16.71-7.78-22.48a25.75,25.75,0,0,0-20-7.84,26.38,26.38,0,0,0-19.52,10.19c-2.67,3.45-5.29,7.71-4.58,13.14a17.35,17.35,0,0,1,.06,2.91Z" transform="translate(-42.4 -51.67)"/><path class="cls-1" d="M730.74,139.62c.61,0,1.23,0,1.84,0a2.17,2.17,0,0,0,2.36-2.42c.07-6.85-1.09-13.44-4.5-19.45-5.08-9-12.89-13.91-23.05-15-12.76-1.38-23.5,2.63-31.45,12.87-6.93,8.92-8.76,19.24-7,30.23,1.35,8.6,5.14,16,12,21.43,11.92,9.47,30.86,10.33,43.67,2.07a19.57,19.57,0,0,0,7.77-8.6,4.1,4.1,0,0,0-2-5.73c-1-.49-1.52-.32-2.23.65-1.79,2.45-3.51,5.11-5.79,7-8.91,7.52-24.73,8-34.81,1.25-8.56-5.74-11.91-14.16-12.34-24.3h55.51ZM684.28,116c9.73-9.59,26.36-10,35.81-.82,5,4.91,7.08,11.13,7.48,18.18h-52A30.39,30.39,0,0,1,684.28,116Z" transform="translate(-42.4 -51.67)"/><path class="cls-1" d="M704.36,175.92a38.77,38.77,0,0,1-24-8c-6.76-5.37-10.92-12.77-12.36-22-1.87-11.95.56-22.35,7.21-30.93,7.94-10.23,18.79-14.67,32.26-13.21,10.58,1.14,18.57,6.35,23.74,15.46,3.18,5.61,4.69,12.12,4.61,19.9a3,3,0,0,1-3.24,3.32c-.54,0-1.09,0-1.63,0H676.18c.64,10.29,4.53,17.71,11.89,22.65,9.76,6.55,25.21,6,33.72-1.19a30.29,30.29,0,0,0,4.73-5.61l.92-1.27c1-1.33,2-1.61,3.36-.93a5,5,0,0,1,2.41,6.9,20.37,20.37,0,0,1-8.11,9A38.45,38.45,0,0,1,704.36,175.92Zm-1.71-72.56a31.46,31.46,0,0,0-26,12.78c-6.34,8.17-8.65,18.1-6.86,29.54,1.37,8.76,5.31,15.78,11.7,20.86,11.68,9.28,30,10.14,42.62,2a18.63,18.63,0,0,0,7.43-8.2c.86-2,.3-3.65-1.55-4.56-.54-.26-.61-.3-1.1.37l-.91,1.26a31.67,31.67,0,0,1-5,5.94c-9.24,7.8-25.34,8.39-35.9,1.31-8.09-5.43-12.26-13.61-12.74-25l0-.94H731c.52,0,1,0,1.57,0,1.09,0,1.48-.44,1.5-1.53.07-7.46-1.36-13.67-4.38-19-4.87-8.58-12.39-13.48-22.37-14.56A43.07,43.07,0,0,0,702.65,103.36Zm25.87,30.95h-54l.17-1a31.17,31.17,0,0,1,9-17.86c10-9.9,27.36-10.28,37.08-.82,4.76,4.64,7.3,10.78,7.75,18.78Zm-51.87-1.81H726.6c-.56-7.06-2.9-12.51-7.14-16.63-9-8.8-25.18-8.42-34.55.82h0A29.15,29.15,0,0,0,676.66,132.5Z" transform="translate(-42.4 -51.67)"/><path class="cls-1" d="M607.41,107.61c-11.24,7.29-16.18,18.07-16.29,31.14-.1,11.4,3.6,21.38,12.77,28.63,11.84,9.35,30.6,10.11,43.36,2a19.6,19.6,0,0,0,7.9-8.72,4.08,4.08,0,0,0-1.89-5.62c-1-.54-1.61-.43-2.37.64a38,38,0,0,1-5.81,7c-6.39,5.41-14.09,6.45-22.13,5.65-16-1.6-24.92-14.57-24.85-28.73h55.64c.61,0,1.23,0,1.84,0a2,2,0,0,0,2.09-2.09c.15-9.15-1.9-17.61-8-24.78C639.42,100.5,619.85,99.54,607.41,107.61Zm43,25.82h-52a28.7,28.7,0,0,1,3.24-10.14A26.83,26.83,0,0,1,636.79,111c7.72,3.63,11.64,10.17,13.11,18.36C650.13,130.65,650.21,132,650.37,133.43Z" transform="translate(-42.4 -51.67)"/><path class="cls-1" d="M627.07,175.9a38.5,38.5,0,0,1-23.74-7.81c-8.81-7-13.22-16.84-13.12-29.35.12-14,5.74-24.78,16.7-31.89h0c12.18-7.9,32.57-7.67,43.49,5.28,5.66,6.71,8.33,15,8.16,25.37a2.87,2.87,0,0,1-2.92,3c-.56,0-1.11,0-1.64,0H599c.3,12,7.83,25.31,24,26.93,9.18.92,16-.81,21.46-5.44a32.33,32.33,0,0,0,5-6l.62-.87c1-1.41,2.07-1.68,3.53-.91A5,5,0,0,1,656,161a20.4,20.4,0,0,1-8.25,9.12A38.7,38.7,0,0,1,627.07,175.9Zm-19.16-67.54c-10.42,6.76-15.77,17-15.88,30.39-.1,11.93,4.08,21.32,12.43,27.92,11.53,9.12,29.73,10,42.32,1.94a18.65,18.65,0,0,0,7.55-8.31,3.18,3.18,0,0,0-1.47-4.47c-.6-.31-.7-.36-1.22.37l-.62.86a33.64,33.64,0,0,1-5.34,6.33c-5.86,5-13.11,6.82-22.81,5.86-15.19-1.52-25.74-13.71-25.66-29.64v-.9H654c.52,0,1,0,1.49,0,1-.09,1.26-.54,1.27-1.2.16-9.91-2.37-17.82-7.74-24.18-10.31-12.22-29.59-12.41-41.13-4.93Zm43.48,26h-54l.12-1a29.63,29.63,0,0,1,3.34-10.46,27.75,27.75,0,0,1,36.33-12.71c7.4,3.48,12,9.88,13.61,19,.16.92.25,1.82.35,2.78,0,.44.09.9.14,1.37Zm-52-1.81h49.94l0-.39c-.09-.92-.18-1.79-.33-2.64-1.55-8.66-5.67-14.45-12.6-17.71a26,26,0,0,0-34,11.91A28.41,28.41,0,0,0,599.43,132.53Z" transform="translate(-42.4 -51.67)"/><path class="cls-1" d="M311.59,78.27H242.27a7.18,7.18,0,0,0-1.28.06,2.84,2.84,0,0,0-2.57,2.87c-.17,2.55.92,3.66,3.81,3.67,9.62,0,19.25,0,28.87,0h2.2v2.49q0,40.91,0,81.83c0,.61,0,1.23,0,1.84a2.79,2.79,0,0,0,3,2.83c3.24.21,4.35-.83,4.35-4.1q0-41.28,0-82.56V84.88h30.13a14.15,14.15,0,0,0,2.2-.1,2.78,2.78,0,0,0,2.55-2.88C315.67,79.47,314.4,78.27,311.59,78.27Z" transform="translate(-42.4 -51.67)"/><path class="cls-1" d="M277.05,174.8l-.81,0a3.68,3.68,0,0,1-3.82-3.64,12.59,12.59,0,0,1,0-1.44V85.78h-9.12q-10.52,0-21.05,0a4.89,4.89,0,0,1-3.78-1.24,4.32,4.32,0,0,1-.93-3.39,3.72,3.72,0,0,1,3.31-3.7,6.8,6.8,0,0,1,1.29-.08h69.48a5,5,0,0,1,3.84,1.3,4.27,4.27,0,0,1,1,3.29,3.67,3.67,0,0,1-3.31,3.72,13.29,13.29,0,0,1-2.07.11H281.56v84c0,2-.39,3.2-1.25,4A4.5,4.5,0,0,1,277.05,174.8ZM271.1,84h3.11v85.74a10.83,10.83,0,0,0,0,1.23c.14,1.4.7,1.92,2.13,2s2.25-.07,2.71-.5.68-1.29.68-2.69V84h31.32a10.85,10.85,0,0,0,1.78-.08,1.9,1.9,0,0,0,1.79-2,2.53,2.53,0,0,0-.51-1.95,3.45,3.45,0,0,0-2.53-.74H242.1a5.47,5.47,0,0,0-1,0,2,2,0,0,0-1.83,2,2.69,2.69,0,0,0,.45,2,3.37,3.37,0,0,0,2.46.67q10.53,0,21,0Z" transform="translate(-42.4 -51.67)"/><path class="cls-1" d="M573.53,75.48c-.65-1.55-2.84-2.11-4.68-1.64s-1.1,2-1.11,3c0,15.38,0,30.76,0,46.14q0,23.53,0,47.06c0,3,1.06,4,4,3.8,2.19-.14,3-1.14,3-4q0-22.15,0-44.3c0-15,0-30,0-45A13.85,13.85,0,0,0,573.53,75.48Z" transform="translate(-42.4 -51.67)"/><path class="cls-1" d="M571.06,174.8a4.2,4.2,0,0,1-3.05-1c-.82-.77-1.19-1.93-1.19-3.77q0-17.65,0-35.29V114.14q0-18.63,0-37.27a4.53,4.53,0,0,0-.06-.62c-.12-.88-.39-2.73,1.85-3.29s4.88.12,5.73,2.17h0a14.79,14.79,0,0,1,1.2,5.45c.07,11.62.06,23.42.05,34.84v20.42q0,17,0,34.08c0,2.39-.46,4.63-3.81,4.85Zm-.93-100.22a4.33,4.33,0,0,0-1.05.13c-.62.16-.65.25-.51,1.29a6.24,6.24,0,0,1,.08.88q-.06,18.63,0,37.26v20.64q0,17.65,0,35.29a3.41,3.41,0,0,0,.62,2.45,3.32,3.32,0,0,0,2.44.45c1.47-.1,2.12-.41,2.12-3q0-17,0-34.08V115.42c0-11.42,0-23.22-.05-34.83a13,13,0,0,0-1.06-4.76A2.69,2.69,0,0,0,570.13,74.58Z" transform="translate(-42.4 -51.67)"/><path class="cls-1" d="M336.6,106a2.5,2.5,0,0,0-2.43-2.5c-3.3-.44-4.53.6-4.53,4q0,15.53,0,31.06,0,6.89,0,13.78,0,8.91,0,17.83c0,1.54.17,3.2,1.92,3.55,2.88.58,5.1.37,5.16-3.39,0-.55,0-1.1,0-1.65q0-30,0-59.91C336.74,107.83,336.69,106.91,336.6,106Z" transform="translate(-42.4 -51.67)"/><path class="cls-1" d="M333.6,174.84a11.47,11.47,0,0,1-2.22-.26c-2.65-.53-2.65-3.27-2.65-4.43V129q0-10.75,0-21.5c0-2,.43-3.31,1.34-4.1s2.25-1,4.22-.78a3.4,3.4,0,0,1,3.22,3.31h0c.09,1.05.14,2,.14,2.83q0,27.23,0,54.46v5.45c0,.37,0,.74,0,1.11v.56a4.6,4.6,0,0,1-1.42,3.73A4,4,0,0,1,333.6,174.84Zm-.71-70.54a2.44,2.44,0,0,0-1.63.43c-.48.42-.72,1.32-.72,2.74q0,10.75,0,21.5v41.16c0,1.81.3,2.48,1.2,2.66,1.73.35,2.76.3,3.33-.16a3,3,0,0,0,.75-2.36v-.58c0-.35,0-.71,0-1.06V163.2q0-27.23,0-54.46c0-.8,0-1.67-.13-2.67a1.62,1.62,0,0,0-1.66-1.68A8.83,8.83,0,0,0,332.88,104.3Z" transform="translate(-42.4 -51.67)"/><path class="cls-1" d="M333.34,75.21c-3.34,0-5,1.57-5,4.91S329.85,85,332.93,85c3.4,0,5.16-1.55,5.2-4.71C338.17,76.89,336.6,75.22,333.34,75.21Z" transform="translate(-42.4 -51.67)"/><path class="cls-1" d="M333.08,85.91h-.17c-3.59-.05-5.48-2.06-5.45-5.8s2-5.8,5.83-5.8h0a5.72,5.72,0,0,1,4.22,1.49A6.11,6.11,0,0,1,339,80.3a5.59,5.59,0,0,1-1.52,4.11A6.13,6.13,0,0,1,333.08,85.91Zm.21-9.8c-2.8,0-4,1.2-4,4s1.08,3.94,3.67,4a4.54,4.54,0,0,0,3.31-1,3.89,3.89,0,0,0,1-2.84,4.42,4.42,0,0,0-1-3.22,4,4,0,0,0-2.94-.95h0Z" transform="translate(-42.4 -51.67)"/></svg>