<?xml version="1.0" encoding="utf-8"?>
<!-- Generator: Adobe Illustrator 20.0.0, SVG Export Plug-In . SVG Version: 6.00 Build 0)  -->
<svg version="1.1" xmlns="http://www.w3.org/2000/svg" xmlns:xlink="http://www.w3.org/1999/xlink" x="0px" y="0px"
	 viewBox="0 0 350 454.5" style="enable-background:new 0 0 350 454.5;" xml:space="preserve">
<style type="text/css">
	.st0{display:none;}
	.st1{display:inline;}
	.st2{fill:#424952;}
	.st3{fill:#FED907;}
	.st4{fill:#A8D2F0;}
	.st5{fill:#FFFFFF;}
	.st6{fill:#1AA4DE;}
	.st7{fill:none;}
	.st8{fill:#50B857;}
	.st9{display:inline;fill:#424952;}
	.st10{fill:#FCCD2E;}
	.st11{display:inline;fill:none;stroke:#515151;stroke-width:10.7403;stroke-linejoin:round;stroke-miterlimit:10;}
	.st12{display:inline;fill:#515151;}
	.st13{display:inline;fill:#50B857;}
	.st14{display:inline;fill:none;stroke:#515151;stroke-width:9.4982;stroke-linejoin:round;stroke-miterlimit:10;}
	.st15{display:inline;fill:none;stroke:#515151;stroke-width:9.7745;stroke-linejoin:round;stroke-miterlimit:10;}
	.st16{display:inline;fill:#FFFFFF;}
	.st17{display:inline;fill:#FED907;}
	.st18{display:inline;fill:none;}
	.st19{fill:#434952;}
	.st20{display:inline;fill:#1AA4DE;}
	.st21{display:inline;fill:#434952;}
	.st22{fill:#434952;stroke:#434952;stroke-width:2.6183;stroke-miterlimit:10;}
</style>
<g id="Guide">
</g>
<g id="Blog_Listing" class="st0">
	<g class="st1">
		<path class="st2" d="M289.8,189.8h-11.2v-22.4H71.4v22.4H60.2V162c0-3.2,2.6-5.8,5.8-5.8h218c3.2,0,5.8,2.6,5.8,5.8V189.8z"/>
		<path class="st2" d="M273,150.6h-11.2v-16.8H88.2v16.8H77v-22.2c0-3.2,2.6-5.8,5.8-5.8h184.4c3.2,0,5.8,2.6,5.8,5.8V150.6z"/>
		<path class="st2" d="M256.2,117H245v-16.8H105V117H93.8V94.8c0-3.2,2.6-5.8,5.8-5.8h150.8c3.2,0,5.8,2.6,5.8,5.8V117z"/>
		<path class="st2" d="M239.4,83.4h-11.2V66.6H121.8v16.8h-11.2V61.2c0-3.2,2.6-5.8,5.8-5.8h117.2c3.2,0,5.8,2.6,5.8,5.8V83.4z"/>
		<polygon class="st3" points="233.8,201 217,217.8 133,217.8 116.2,201 26.6,201 26.6,324.2 323.4,324.2 323.4,201 		"/>
		<path class="st4" d="M205.8,273.8c0,6.2-5,11.2-11.2,11.2h-39.2c-6.2,0-11.2-5-11.2-11.2v-22.4h61.6V273.8z"/>
		<path class="st4" d="M155.4,279.4h39.2c3.1,0,5.6-2.5,5.6-5.6V257h-50.4v16.8C149.8,276.8,152.3,279.4,155.4,279.4z"/>
		<path class="st2" d="M265.3,61h-14.7v11.2h7.7l59.5,118.9v4.3h-86.3l-16.8,16.8h-79.4l-16.8-16.8H32.2v-4.3L91.7,72.2h7.7V61H84.7
			L21,188.4v6.9v5.6v117.2c0,6.4,5.2,11.6,11.6,11.6h284.8c6.4,0,11.6-5.2,11.6-11.6V201v-5.6v-6.9L265.3,61z M317.8,318.6H32.2
			v-112h81.7l16.8,16.8h88.6l16.8-16.8h81.7V318.6z"/>
		<path class="st5" d="M155.4,279.4h39.2c3.1,0,5.6-2.5,5.6-5.6V257h-50.4v16.8C149.8,276.8,152.3,279.4,155.4,279.4z"/>
		<path class="st2" d="M138.6,253.5v20.3c0,9.3,7.5,16.8,16.8,16.8h39.2c9.3,0,16.8-7.5,16.8-16.8v-20.3c0-4.3-3.5-7.7-7.7-7.7
			h-57.3C142.1,245.8,138.6,249.2,138.6,253.5z M200.2,273.8c0,3.1-2.5,5.6-5.6,5.6h-39.2c-3.1,0-5.6-2.5-5.6-5.6V257h50.4V273.8z"
			/>
	</g>
</g>
<g id="Blog_Post" class="st0">
	<g class="st1">
		<path class="st6" d="M132.9,152.5c-0.8,4.8-2.2,9.8-4.3,14.9c-3.1-12.4-4.2-23.1-18.9-33.8c-5.4-3.3-11.2-6.1-17.3-8.4
			c-23.8-8.9-45.6-15-62.6-34.7c-5.7,14.2-5,32-0.8,49.6c5.6,17.1,15.6,21.5,26.6,28.4c-6.2,0.4-12-0.1-17.3-1.1
			c4.6,10.5,10.1,19.9,15.6,27.3c16.5,20.9,30.8,20.9,47.8,23.7c-4.5,2.6-9,4.6-13.4,6.2c14.9,8.8,58.3,18,76.2,21.3
			c0.1,0.2,0.1,0.2,0,0C170.8,224.9,156.1,177.1,132.9,152.5z"/>
		<path class="st2" d="M327.4,100.7c0-16.9-13.8-30.7-30.7-30.7H138.2c-16.9,0-30.7,13.8-30.7,30.7V116h10.2v-15.3
			c0-11.3,9.2-20.5,20.5-20.5h133h2.7c-4.9,5.4-7.8,12.6-7.8,20.5v184.2c0,11.3-9.2,20.5-20.5,20.5c-11.3,0-20.5-9.2-20.5-20.5v-5.1
			H117.7v-25.6h-10.2v25.6H76.8v5.1c0,16.9,13.8,30.7,30.7,30.7h138.1c16.9,0,30.7-13.8,30.7-30.7V110.9h51.2V100.7z M107.5,305.3
			c-9.5,0-17.5-6.5-19.8-15.3h127.7c1,5.8,3.6,11.1,7.4,15.3H107.5z M276.3,100.7c0-11.3,9.2-20.5,20.5-20.5
			c11.3,0,20.5,9.2,20.5,20.5H276.3z"/>
		<path class="st7" d="M70.2,143.1l90.7,90.7c-0.1-19.4-10.1-49.7-25.4-70.2c-0.6,2-1.4,3.9-2.2,5.8l-5.9,14.2l-3.8-14.9
			c-0.3-1.4-0.7-2.7-1-4c-2.5-10.3-4.4-18.4-16-26.9c-4.9-3-10.4-5.7-16.1-7.8c-2.8-1.1-5.7-2.1-8.4-3.1
			C64,120.3,46.8,114,32.1,100.3c-2.3,10.8-1.7,23.9,1.8,38.5c4.3,13,11.6,17.5,20.8,23.1c1.2,0.7,2.4,1.4,3.6,2.2l13.6,8.5l-16,0.9
			c-3,0.2-5.9,0.2-8.9,0c3.4,6.7,7.2,12.9,11.1,18.1c13.5,17,24.9,18.7,39.3,20.9c1.7,0.3,3.4,0.5,5.2,0.8l14.2,2.3l-12.5,7.2
			c-1.1,0.6-2.2,1.2-3.3,1.8c13.3,4.9,33.3,9.8,49.4,13.2l-87.4-87.4c-2-2-2-5.2,0-7.2C64.9,141.1,68.2,141.1,70.2,143.1z"/>
		<path class="st2" d="M187.8,260.8l-17.5-17.5c4.5-25-11.5-70.7-33.7-94.3l-7-7.4l-1.2,6.9c-2.8-6.4-7.4-12.9-16.1-19.2
			c-5.8-3.5-11.9-6.5-18.1-8.8c-2.9-1.1-5.7-2.1-8.5-3.1c-20.3-7.4-37.9-13.8-52-30.2l-5.5-6.4L25,88.6c-5.6,13.9-6,32.1-0.9,53.1
			c3.1,9.6,7.7,15.7,12.8,20.3l-7.2-1.3l3.9,8.8c4.7,10.6,10.3,20.4,16.3,28.4c11.9,15.1,23,20.2,34.2,22.7l-7.8,2.8l9.4,5.5
			c16.8,9.9,64.7,19.4,75.7,21.5l0.5,0.8l1.7-0.1l16.9,16.9c1,1,2.3,1.5,3.6,1.5c1.3,0,2.6-0.5,3.6-1.5
			C189.8,266,189.8,262.8,187.8,260.8z M62.9,150.4l87.4,87.4c-16.1-3.4-36.1-8.2-49.4-13.2c1.1-0.6,2.2-1.2,3.3-1.8l12.5-7.2
			l-14.2-2.3c-1.8-0.3-3.5-0.5-5.2-0.8c-14.4-2.1-25.9-3.8-39.3-20.9c-3.9-5.2-7.7-11.4-11.1-18.1c3,0.2,6,0.2,8.9,0l16-0.9
			l-13.6-8.5c-1.2-0.8-2.4-1.5-3.6-2.2c-9.2-5.6-16.5-10-20.8-23.1c-3.5-14.6-4.1-27.8-1.8-38.5c14.7,13.7,31.9,20,50.1,26.6
			c2.8,1,5.6,2,8.4,3.1c5.6,2.1,11.1,4.8,16.1,7.8c11.6,8.4,13.6,16.6,16,26.9c0.3,1.3,0.6,2.7,1,4l3.8,14.9l5.9-14.2
			c0.8-1.9,1.5-3.8,2.2-5.8c15.3,20.5,25.2,50.9,25.4,70.2l-90.7-90.7c-2-2-5.2-2-7.2,0C60.9,145.1,60.9,148.4,62.9,150.4z"/>
	</g>
</g>
<g id="Confirmation" class="st0">
	<g class="st1">
		<path class="st2" d="M294.4,357H48.8c-15,0-27.3-12.2-27.3-27.3V186.4c0-2.5,1.4-4.9,3.7-6.1c2.3-1.2,5-1,7.1,0.5
			c25.1,17.7,91.6,64.4,97.6,67.9c9.9,5.8,25.2,12.7,41.8,12.7c16.7,0,31.9-6.9,41.8-12.7h0c6-3.5,72.5-50.3,97.6-68
			c2.1-1.5,4.8-1.7,7.1-0.5c2.3,1.2,3.7,3.5,3.7,6.1v143.3C321.7,344.8,309.5,357,294.4,357z M35.1,199.6v130.1
			c0,7.5,6.1,13.6,13.6,13.6h245.6c7.5,0,13.6-6.1,13.6-13.6V199.6c-24.9,17.5-81.5,57.3-87.8,61l0,0c-11.3,6.6-29,14.5-48.7,14.5
			c-19.7,0-37.3-7.9-48.7-14.6C116.7,256.9,60,217.1,35.1,199.6z"/>
		
			<rect x="246.6" y="240.5" transform="matrix(0.7071 -0.7071 0.7071 0.7071 -129.9706 263.818)" class="st2" width="13.6" height="96.5"/>
		
			<rect x="41.5" y="282" transform="matrix(0.7071 -0.7071 0.7071 0.7071 -177.9365 148.0179)" class="st2" width="96.5" height="13.6"/>
		<path class="st2" d="M321.7,186.4h-13.6v-6.8c0-5-2.3-9.1-7.3-13.1l-38-32.7l8.9-10.3l37.8,32.5c8.1,6.4,12.3,14.4,12.3,23.6
			V186.4z"/>
		<path class="st2" d="M35.1,186.4H21.5v-6.8c0-9.2,4.2-17.2,12.5-23.8l37.6-32.3l8.9,10.3l-37.8,32.5c-5.2,4.1-7.5,8.3-7.5,13.3
			V186.4z"/>
		<path class="st2" d="M301.2,43.8l-191.1-0.7c-22.6,0-40.9,18.4-40.9,40.9v136.5h13.6V84.1c0-15.1,12.2-27.3,27.3-27.3h156.9v0h3.6
			c-6.5,7.2-10.4,16.8-10.4,27.3v136.5h13.6V84.1c0-13.9,10.5-25.3,24-27c9.9,1.6,17,9.7,17,20.1h-27.3v13.6h40.9V77.3
			C328.5,60.5,317,46.9,301.2,43.8z"/>
	</g>
	<g class="st1">
		<path class="st2" d="M173.7,204.1c-32.9,0-59.6-26.7-59.6-59.6s26.7-59.6,59.6-59.6c32.9,0,59.6,26.7,59.6,59.6
			S206.5,204.1,173.7,204.1z"/>
		<path class="st8" d="M173.7,94.8c-27.4,0-49.7,22.3-49.7,49.7s22.3,49.7,49.7,49.7c27.4,0,49.7-22.3,49.7-49.7
			S201.1,94.8,173.7,94.8z"/>
		<g>
			<path class="st2" d="M153.8,140.6c-0.8,0-1.5,0.3-2,0.8l-4.5,4.5c-1.1,1.1-1.1,3,0,4.1l15.7,15.7c0.5,0.5,1.3,0.9,2,0.9
				c0.8,0,1.6-0.4,2.1-0.9l33-35.5c1.1-1.1,1-2.9-0.1-4v0l-4.5-4.5c-0.5-0.5-1.2-0.9-2.1-0.8c-0.8,0-1.5,0.4-2,0.9l-26.3,28.9
				l-9.3-9.3C155.4,140.9,154.6,140.6,153.8,140.6L153.8,140.6z"/>
		</g>
	</g>
</g>
<g id="Contact" class="st0">
	<path class="st9" d="M94.9,273.4H42.4v-15h45V123.2h15v142.6C102.4,270,99.1,273.4,94.9,273.4z"/>
	<path class="st9" d="M320.1,356H27.3c-4.1,0-7.5-3.4-7.5-7.5V108.2c0-4.1,3.4-7.5,7.5-7.5h135.1v15H34.9v225.2h277.8V160.8h15
		v187.7C327.6,352.6,324.3,356,320.1,356z"/>
	<g class="st1">
		<path class="st2" d="M252.7,63.2c-16.6,0-30.1,13.4-30.1,29.9s13.5,29.9,30.1,29.9s30.1-13.4,30.1-29.9S269.3,63.2,252.7,63.2z
			 M252.7,108c-8.3,0-15.1-6.7-15.1-14.9c0-8.2,6.8-14.9,15.1-14.9c8.3,0,15.1,6.7,15.1,14.9C267.8,101.4,261,108,252.7,108z"/>
		<path class="st2" d="M252.6,18.2c-40,0-75.1,35.1-75.1,75.1c0,30.9,16,48.6,32.9,67.3c13.6,15,27.7,30.6,35,55
			c1,3.2,3.9,5.3,7.2,5.3s6.2-2.2,7.2-5.3c7.3-24.4,21.4-40,35-55c16.9-18.7,32.9-36.4,32.9-67.3C327.6,53.2,292.5,18.2,252.6,18.2z
			 M283.6,150.4c-10.6,11.8-22.4,24.7-31,42.4c-8.7-17.7-20.4-30.6-31-42.4c-15.6-17.2-29-32.1-29-57.2c0-31.4,28.6-60.1,60.1-60.1
			c31.4,0,60.1,28.6,60.1,60.1C312.6,118.3,299.2,133.2,283.6,150.4z"/>
		<path class="st10" d="M252.6,33.2c-31.4,0-60.1,28.6-60.1,60.1c0,25.1,13.4,40,29,57.2c10.6,11.8,22.4,24.7,31,42.4
			c8.7-17.7,20.4-30.6,31-42.4c15.6-17.2,29-32.1,29-57.2C312.6,61.8,284,33.2,252.6,33.2z M252.7,123.1
			c-16.6,0-30.1-13.4-30.1-29.9s13.5-29.9,30.1-29.9s30.1,13.4,30.1,29.9S269.3,123.1,252.7,123.1z"/>
	</g>
	<path class="st9" d="M305.1,258.4h-82.6c-2,0-3.9-0.8-5.3-2.2l-27.9-27.8h-56.9c-4.1,0-7.5-3.4-7.5-7.5v-97.6h15v90.1h52.5
		c2,0,3.9,0.8,5.3,2.2l27.9,27.8h79.5V258.4z"/>
	<path class="st9" d="M230,333.4h-15v-30h-7.5c-2,0-3.9-0.8-5.3-2.2l-27.8-27.8H140v60.1h-15v-67.6c0-4.1,3.4-7.5,7.5-7.5h45
		c2,0,3.9,0.8,5.3,2.2l27.8,27.8h11.9c4.1,0,7.5,3.4,7.5,7.5V333.4z"/>
	<path class="st9" d="M275.1,333.4h-15v-37.5c0-4.1,3.4-7.5,7.5-7.5h37.5v15h-30V333.4z"/>
	<path class="st9" d="M102.4,333.4h-15v-22.5h-45v-15h52.5c4.1,0,7.5,3.4,7.5,7.5V333.4z"/>
</g>
<g id="Dashboard" class="st0">
	<g class="st1">
		<polygon class="st7" points="129.7,221.7 129.7,310.7 214.8,310.7 214.8,273.7 299,189.4 299,114.1 43.3,114.1 43.3,310.7 
			44.6,310.7 44.6,306.8 		"/>
		<path class="st7" d="M43.3,101.9H299V77.5H43.3V101.9z M110.3,83.6c3.4,0,6.1,2.7,6.1,6.1s-2.7,6.1-6.1,6.1
			c-3.4,0-6.1-2.7-6.1-6.1S106.9,83.6,110.3,83.6z M85.9,83.6c3.4,0,6.1,2.7,6.1,6.1s-2.7,6.1-6.1,6.1s-6.1-2.7-6.1-6.1
			S82.6,83.6,85.9,83.6z M61.6,83.6c3.4,0,6.1,2.7,6.1,6.1s-2.7,6.1-6.1,6.1c-3.4,0-6.1-2.7-6.1-6.1S58.2,83.6,61.6,83.6z"/>
		<polygon class="st6" points="129.7,221.7 129.7,310.7 214.8,310.7 214.8,273.7 		"/>
		<circle class="st2" cx="61.6" cy="89.7" r="6.1"/>
		<circle class="st2" cx="85.9" cy="89.7" r="6.1"/>
		<circle class="st2" cx="110.3" cy="89.7" r="6.1"/>
		<polygon class="st6" points="129.7,221.7 44.6,306.8 44.6,310.7 129.7,310.7 		"/>
		<polygon class="st6" points="214.8,310.7 299,310.7 299,189.4 214.8,273.7 		"/>
		<path class="st2" d="M305.1,65.4H37.2c-3.4,0-6.1,2.7-6.1,6.1v245.4c0,3.4,2.7,6.1,6.1,6.1h7.4h85.1h85.1h85.1h5.3
			c3.4,0,6.1-2.7,6.1-6.1V71.5C311.2,68.1,308.5,65.4,305.1,65.4z M299,189.4v121.3H44.6h-1.3V114.1H299V189.4z M299,101.9H43.3
			V77.5H299V101.9z"/>
		<g>
			<g>
				
					<rect x="197.1" y="226.5" transform="matrix(0.7071 -0.7071 0.7071 0.7071 -88.1162 249.6407)" class="st2" width="120.3" height="9.4"/>
			</g>
			<g>
				
					<rect x="167.5" y="197.9" transform="matrix(0.5214 -0.8533 0.8533 0.5214 -128.9632 265.5034)" class="st2" width="9.5" height="99.7"/>
			</g>
			<g>
				
					<rect x="27" y="259.5" transform="matrix(0.7071 -0.7071 0.7071 0.7071 -161.3358 139.033)" class="st2" width="120.3" height="9.4"/>
			</g>
		</g>
		<g>
			<circle class="st5" cx="44.6" cy="306.8" r="18.9"/>
		</g>
		<g>
			<path class="st2" d="M44.6,330.4c-13,0-23.6-10.6-23.6-23.6s10.6-23.6,23.6-23.6c13,0,23.6,10.6,23.6,23.6S57.7,330.4,44.6,330.4
				z M44.6,292.6c-7.8,0-14.2,6.4-14.2,14.2S36.8,321,44.6,321c7.8,0,14.2-6.4,14.2-14.2S52.4,292.6,44.6,292.6z"/>
		</g>
		<g>
			<circle class="st5" cx="129.7" cy="221.7" r="18.9"/>
		</g>
		<g>
			<path class="st2" d="M129.7,245.4c-13,0-23.6-10.6-23.6-23.6s10.6-23.6,23.6-23.6c13,0,23.6,10.6,23.6,23.6
				S142.7,245.4,129.7,245.4z M129.7,207.6c-7.8,0-14.2,6.4-14.2,14.2s6.4,14.2,14.2,14.2c7.8,0,14.2-6.4,14.2-14.2
				S137.5,207.6,129.7,207.6z"/>
		</g>
		<g>
			<circle class="st5" cx="214.8" cy="273.7" r="18.9"/>
		</g>
		<g>
			<path class="st2" d="M214.8,297.3c-13,0-23.6-10.6-23.6-23.6c0-13,10.6-23.6,23.6-23.6c13,0,23.6,10.6,23.6,23.6
				C238.4,286.7,227.8,297.3,214.8,297.3z M214.8,259.5c-7.8,0-14.2,6.4-14.2,14.2c0,7.8,6.4,14.2,14.2,14.2
				c7.8,0,14.2-6.4,14.2-14.2C228.9,265.9,222.6,259.5,214.8,259.5z"/>
		</g>
		<g>
			<circle class="st5" cx="305.4" cy="194.2" r="18.9"/>
		</g>
		<g>
			<path class="st2" d="M305.4,217.8c-13,0-23.6-10.6-23.6-23.6c0-13,10.6-23.6,23.6-23.6c13,0,23.6,10.6,23.6,23.6
				C329,207.2,318.4,217.8,305.4,217.8z M305.4,180c-7.8,0-14.2,6.4-14.2,14.2c0,7.8,6.4,14.2,14.2,14.2c7.8,0,14.2-6.4,14.2-14.2
				C319.5,186.4,313.2,180,305.4,180z"/>
		</g>
	</g>
</g>
<g id="Download" class="st0">
	<path class="st11" d="M328.9,322.4"/>
	<path class="st12" d="M172.5,173.7c-1.7,0-3.4-0.6-4.7-1.9l-46.2-46.2c-1.9-1.9-2.5-4.7-1.4-7.2c1-2.5,3.4-4.1,6.1-4.1h13.2V75.7
		c0-5.7-3.6-10.7-9-12.5l-6.3-2.1c-3.1-1-4.9-4.1-4.4-7.3c0.5-3.2,3.3-5.5,6.5-5.5h52.8c14.6,0,26.4,11.9,26.4,26.4v39.6h19.8
		c2.8,0,5.2,1.7,6.2,4.3c1,2.6,0.2,5.5-1.8,7.3l-52.8,46.2C175.6,173.2,174,173.7,172.5,173.7z"/>
	<path class="st13" d="M142.2,127.5l30.6,30.6l35-30.6h-8.8c-3.6,0-6.6-3-6.6-6.6V74.6c0-7.3-5.9-13.2-13.2-13.2h-30.6
		c2.7,4.2,4.2,9.1,4.2,14.3v45.2c0,3.6-3,6.6-6.6,6.6H142.2z"/>
	<rect x="26.8" y="194.3" class="st12" width="294.6" height="13.4"/>
	<polygon class="st12" points="328.1,328.2 20.1,328.2 20.1,200 56.1,127.3 107.2,127.3 107.2,140.7 64.4,140.7 33.5,203.1 
		33.5,314.8 314.8,314.8 314.8,203.2 282.3,140.7 241.1,140.7 241.1,127.3 290.5,127.3 328.1,199.9 	"/>
	<path class="st12" d="M214.3,241.1H134v-46.9h80.3V241.1z M147.4,227.8h53.6v-20.1h-53.6V227.8z"/>
	<rect x="46.9" y="288" class="st12" width="13.4" height="13.4"/>
	<rect x="73.7" y="288" class="st12" width="13.4" height="13.4"/>
</g>
<g id="Event_Listing" class="st0">
	<path class="st14" d="M329.2,316.3"/>
	<g class="st1">
		<path class="st2" d="M300.5,309.2H128.1v-13.7h172.4c7.5,0,13.7-6.1,13.7-13.7V110.6c0-7.6-6.1-13.7-13.7-13.7H72.9
			c-7.6,0-13.7,6.1-13.7,13.7v118.1H45.5V110.6c0-15.1,12.3-27.4,27.4-27.4h227.6c15.1,0,27.4,12.3,27.4,27.4v171.2
			C327.9,296.9,315.6,309.2,300.5,309.2z"/>
		<path class="st2" d="M327.9,144.8H45.5v-41.1c0-11.3,9.2-20.5,20.5-20.5h241.3c11.3,0,20.5,9.2,20.5,20.5V144.8z M59.2,131.1h255
			v-27.4c0-3.8-3.1-6.8-6.8-6.8H66.1c-3.8,0-6.8,3.1-6.8,6.8V131.1z"/>
		<rect x="86.6" y="69.5" class="st2" width="13.7" height="41.1"/>
		<rect x="273.1" y="69.5" class="st2" width="13.7" height="41.1"/>
		<rect x="118.5" y="201.1" class="st2" width="159" height="13.8"/>
		<rect x="118.5" y="168" class="st2" width="159" height="13.8"/>
		<rect x="118.5" y="235.2" class="st2" width="121.8" height="13.8"/>
		<g>
			<path class="st2" d="M69.8,336.4c-27.5,0-49.9-22.4-49.9-49.9c0-27.5,22.4-49.9,49.9-49.9c27.5,0,49.9,22.4,49.9,49.9
				C119.7,314,97.4,336.4,69.8,336.4z"/>
			<path class="st6" d="M69.8,244.9c-22.9,0-41.6,18.7-41.6,41.6c0,22.9,18.7,41.6,41.6,41.6c22.9,0,41.6-18.7,41.6-41.6
				C111.4,263.6,92.8,244.9,69.8,244.9z"/>
			<polygon class="st2" points="94.8,290.7 65.7,290.7 65.7,257.4 74,257.4 74,282.3 94.8,282.3 			"/>
		</g>
	</g>
</g>
<g id="Event_Details" class="st0">
	<path class="st15" d="M329.1,297.7"/>
	<rect x="227.2" y="272.8" class="st9" width="41.8" height="12"/>
	<path class="st9" d="M131.6,87.5h12v-12c0-6.6,5.4-12,12-12h143.4v-12H155.5c-13.2,0-23.9,10.7-23.9,23.9V87.5z"/>
	<rect x="95.7" y="182.7" class="st9" width="89.6" height="12"/>
	<rect x="95.7" y="212.2" class="st9" width="89.9" height="12"/>
	<rect x="95.7" y="241.8" class="st9" width="53.8" height="12"/>
	<rect x="95.7" y="153.3" class="st9" width="89.6" height="12"/>
	<path class="st9" d="M304.9,51.7c-13.2,0-23.9,10.7-23.9,23.9v185.3c0,6.6-5.4,12-12,12c-6.6,0-12-5.4-12-12V117.4
		c0-13.2-10.7-23.9-23.9-23.9H83.8c-13.2,0-23.9,10.7-23.9,23.9v136.4l12-0.1V117.4c0-6.6,5.4-12,12-12h128.7c-2,3.5-3.2,7.6-3.2,12
		v197.2h-77.4v12h89.4V117.4c0-6.6,5.4-12,12-12c6.6,0,12,5.4,12,12v143.4c0,13.2,10.7,23.9,23.9,23.9c13.2,0,23.9-10.7,23.9-23.9
		V75.6c0-6.6,5.4-12,12-12c6.6,0,12,5.4,12,12v23.9h-17.9v12h29.9V75.6C328.8,62.4,318.1,51.7,304.9,51.7z"/>
	<g class="st1">
		<path class="st2" d="M71.9,364.8c-28.2,0-51.1-22.9-51.1-51.1c0-28.2,22.9-51.1,51.1-51.1c28.2,0,51.1,22.9,51.1,51.1
			C123.1,341.9,100.1,364.8,71.9,364.8z"/>
		<path class="st8" d="M71.9,271.1c-23.5,0-42.6,19.1-42.6,42.6s19.1,42.6,42.6,42.6c23.5,0,42.6-19.1,42.6-42.6
			S95.4,271.1,71.9,271.1z"/>
		<polygon class="st2" points="97.5,317.9 67.7,317.9 67.7,283.9 76.2,283.9 76.2,309.4 97.5,309.4 		"/>
	</g>
</g>
<g id="Calendar" class="st0">
	<path class="st9" d="M301.2,319.7H128.8v-13.7h172.4c7.5,0,13.7-6.1,13.7-13.7V121.2c0-7.6-6.1-13.7-13.7-13.7H73.6
		c-7.6,0-13.7,6.1-13.7,13.7v118.1H46.2V121.2c0-15.1,12.3-27.4,27.4-27.4h227.6c15.1,0,27.4,12.3,27.4,27.4v171.2
		C328.6,307.5,316.3,319.7,301.2,319.7z"/>
	<path class="st9" d="M328.6,155.4H46.2v-41.1c0-11.3,9.2-20.5,20.5-20.5h241.3c11.3,0,20.5,9.2,20.5,20.5V155.4z M59.9,141.7h255
		v-27.4c0-3.8-3.1-6.8-6.8-6.8H66.8c-3.8,0-6.8,3.1-6.8,6.8V141.7z"/>
	<rect x="87.3" y="80.1" class="st9" width="13.7" height="41.1"/>
	<rect x="273.8" y="80.1" class="st9" width="13.7" height="41.1"/>
	<g class="st1">
		<path class="st2" d="M70.5,347c-27.5,0-49.9-22.4-49.9-49.9c0-27.5,22.4-49.9,49.9-49.9c27.5,0,49.9,22.4,49.9,49.9
			C120.5,324.6,98.1,347,70.5,347z"/>
		<path class="st6" d="M70.5,255.5c-22.9,0-41.6,18.7-41.6,41.6s18.7,41.6,41.6,41.6c22.9,0,41.6-18.7,41.6-41.6
			S93.5,255.5,70.5,255.5z"/>
	</g>
	<polyline class="st9" points="148.8,169.5 180.6,169.5 180.6,201.3 148.8,201.3 	"/>
	<rect x="201.9" y="169.5" class="st9" width="31.8" height="31.8"/>
	<rect x="255.5" y="169.5" class="st9" width="31.8" height="31.8"/>
	<rect x="148.8" y="213.1" class="st9" width="31.8" height="31.8"/>
	<rect x="201.9" y="213.1" class="st9" width="31.8" height="31.8"/>
	<polyline class="st9" points="95.4,169.5 127.2,169.5 127.2,201.3 95.4,201.3 	"/>
	<rect x="95.4" y="213.1" class="st9" width="31.8" height="31.8"/>
	<rect x="201.9" y="257.2" class="st9" width="31.8" height="31.8"/>
	<rect x="255.2" y="213.1" class="st9" width="31.8" height="31.8"/>
	<rect x="148.8" y="257.7" class="st9" width="31.8" height="31.8"/>
	<path class="st12" d="M90.4,289.3c-0.4-1.1-1.5-1.9-2.7-2l-11.2-0.6l-4.3-11.4c-0.4-1.2-1.6-2-2.8-2c-1.3,0-2.4,0.8-2.8,2
		l-4.3,11.4L51,287.3c-1.2,0.1-2.3,0.9-2.7,2c-0.4,1.1-0.1,2.4,0.8,3.3l8.7,8.1L55.1,312c-0.3,1.2,0.2,2.4,1.2,3.2
		c1,0.7,2.3,0.8,3.4,0.1l9.6-6l9.6,6c0.5,0.3,1,0.5,1.6,0.5c0.6,0,1.2-0.2,1.8-0.6c1-0.7,1.5-2,1.2-3.2l-2.7-11.4l8.8-8.1
		C90.5,291.7,90.8,290.4,90.4,289.3z"/>
</g>
<g id="Error" class="st0">
	<g class="st1">
		<g>
			<path class="st3" d="M171.5,176.5c-0.8,0-2.8,0.2-4,2.3L78.9,332.1c-1.2,2.1-0.4,3.9,0,4.6c0.4,0.7,1.6,2.3,4,2.3h177
				c2.4,0,3.6-1.6,4-2.3c0.4-0.7,1.2-2.5,0-4.6l-88.5-153.3C174.3,176.7,172.3,176.5,171.5,176.5z"/>
		</g>
		<g>
			<path class="st2" d="M171.6,287.3c4.1,0,7.4-3.3,7.4-7.4v-49.6c0-4.1-3.3-7.4-7.4-7.4c-4.1,0-7.4,3.3-7.4,7.4v49.6
				C164.3,284,167.6,287.3,171.6,287.3z"/>
			<circle class="st2" cx="171.6" cy="309.8" r="9.7"/>
		</g>
		<g>
			<path class="st2" d="M260,348.3H83c-5,0-9.5-2.6-12-7c-2.5-4.4-2.5-9.6,0-13.9l88.5-153.3c2.5-4.4,7-7,12-7c5,0,9.5,2.6,12,7
				L272,327.5c2.5,4.4,2.5,9.6,0,13.9C269.5,345.7,265,348.3,260,348.3z M171.5,176.5c-0.8,0-2.8,0.2-4,2.3L78.9,332.1
				c-1.2,2.1-0.4,3.9,0,4.6c0.4,0.7,1.6,2.3,4,2.3h177c2.4,0,3.6-1.6,4-2.3c0.4-0.7,1.2-2.5,0-4.6l-88.5-153.3
				C174.3,176.7,172.3,176.5,171.5,176.5z"/>
		</g>
	</g>
	<path class="st9" d="M322.5,314.4h-38.4V301h31.7V93.4H34.6V301h29.7v13.4H27.9c-3.7,0-6.7-3-6.7-6.7v-221c0-3.7,3-6.7,6.7-6.7
		h294.6c3.7,0,6.7,3,6.7,6.7v221C329.2,311.4,326.2,314.4,322.5,314.4z"/>
	<rect x="27.9" y="120.2" class="st9" width="294.6" height="13.4"/>
	<path class="st9" d="M54.6,113.5L54.6,113.5c-3.7,0-6.7-3-6.7-6.7v0c0-3.7,3-6.7,6.7-6.7h0c3.7,0,6.7,3,6.7,6.7v0
		C61.3,110.5,58.3,113.5,54.6,113.5z"/>
	<path class="st9" d="M81.4,113.5L81.4,113.5c-3.7,0-6.7-3-6.7-6.7v0c0-3.7,3-6.7,6.7-6.7h0c3.7,0,6.7,3,6.7,6.7v0
		C88.1,110.5,85.1,113.5,81.4,113.5z"/>
	<path class="st9" d="M108.2,113.5L108.2,113.5c-3.7,0-6.7-3-6.7-6.7v0c0-3.7,3-6.7,6.7-6.7h0c3.7,0,6.7,3,6.7,6.7v0
		C114.9,110.5,111.9,113.5,108.2,113.5z"/>
</g>
<g id="External" class="st0">
	<path class="st9" d="M124.3,79H39.8v269.1h269.1v-82.3l19.4,0v85.5c0,8.9-7.3,16.2-16.2,16.2H36.5c-8.9,0-16.2-7.3-16.2-16.2V75.7
		c0-8.9,7.3-16.2,16.2-16.2h87.7"/>
	<g class="st1">
		<path class="st8" d="M148,66.5H316c2.6,0,4.6,2.1,4.6,4.6v168.1c0,4.1-5,6.2-7.9,3.3l-66-65.9l-70,70c-1.8,1.8-4.7,1.8-6.5,0
			l-29.8-29.8c-1.8-1.8-1.8-4.7,0-6.5l69.6-69.6l-65.4-66.4C141.8,71.5,143.8,66.5,148,66.5z"/>
		<path class="st2" d="M173.5,255c-3,0-5.9-1.1-8.2-3.4l-29.8-29.8c-4.5-4.5-4.5-11.9,0-16.4l64.7-64.7l-60.6-61.5
			c-3.3-3.3-4.2-8.3-2.4-12.6c1.8-4.3,6-7.1,10.7-7.1H316c6.4,0,11.6,5.2,11.6,11.6v168.1c0,4.7-2.8,8.9-7.1,10.7
			c-4.3,1.8-9.3,0.8-12.6-2.5l-61.1-61l-65.1,65.1C179.4,253.9,176.5,255,173.5,255z M147,213.7l26.5,26.5l73.3-73.3l66.9,66.8V73.5
			H153.5l66.4,67.4L147,213.7z"/>
	</g>
</g>
<g id="FAQs" class="st0">
	<path class="st16" d="M319.7,223.3v79.1c0,4.6-3.7,8.4-8.4,8.4H298l-14.2,16.1l-14.2-16.1h-87.6c-4.6,0-8.4-3.8-8.4-8.4V293v-69.7
		c0-4.6,3.8-8.4,8.4-8.4h52.7h76.6C316,214.9,319.7,218.7,319.7,223.3z M291.7,260.2c0-6-4.8-10.8-10.8-10.8
		c-6,0-10.8,4.8-10.8,10.8c0,6,4.8,10.8,10.8,10.8C286.8,271,291.7,266.2,291.7,260.2z M257.5,260.2c0-6-4.8-10.8-10.8-10.8
		c-6,0-10.8,4.8-10.8,10.8c0,6,4.8,10.8,10.8,10.8C252.7,271,257.5,266.2,257.5,260.2z M223.4,260.2c0-6-4.8-10.8-10.8-10.8
		c-6,0-10.8,4.8-10.8,10.8c0,6,4.8,10.8,10.8,10.8C218.5,271,223.4,266.2,223.4,260.2z"/>
	<path class="st17" d="M280.9,249.4c6,0,10.8,4.8,10.8,10.8c0,6-4.8,10.8-10.8,10.8c-6,0-10.8-4.8-10.8-10.8
		C270.1,254.3,274.9,249.4,280.9,249.4z"/>
	<path class="st17" d="M246.7,249.4c6,0,10.8,4.8,10.8,10.8c0,6-4.8,10.8-10.8,10.8c-6,0-10.8-4.8-10.8-10.8
		C235.9,254.3,240.8,249.4,246.7,249.4z"/>
	<path class="st17" d="M212.6,249.4c6,0,10.8,4.8,10.8,10.8c0,6-4.8,10.8-10.8,10.8c-6,0-10.8-4.8-10.8-10.8
		C201.8,254.3,206.6,249.4,212.6,249.4z"/>
	<path class="st18" d="M235.9,199.3c0,5.3-0.4,10.5-1.2,15.6h-52.7c-4.6,0-8.4,3.8-8.4,8.4V293c-12.4,5.3-26,8.2-40.4,8.2
		c-21.9,0-42.2-6.8-58.8-18.4L26,301.2l19.2-49.7c-9.2-15.3-14.5-33.1-14.5-52.2c0-56.3,46-101.9,102.6-101.9
		C190,97.5,235.9,143.1,235.9,199.3z"/>
	<g class="st1">
		<path class="st2" d="M26,305c-1,0-2-0.4-2.7-1.1c-1-1.1-1.4-2.6-0.8-4l18.5-48c-9.2-15.9-14.1-34.1-14.1-52.5
			c0-58.2,47.7-105.6,106.4-105.6c58.7,0,106.4,47.4,106.4,105.6c0,5.4-0.4,10.9-1.2,16.2l-7.4-1.1c0.8-4.9,1.1-10,1.1-15
			c0-54.1-44.3-98.1-98.8-98.1c-54.5,0-98.9,44-98.9,98.1c0,17.7,4.8,35.1,13.9,50.2c0.6,1,0.7,2.2,0.3,3.3l-16.1,41.8l40.6-15.4
			c1.2-0.4,2.5-0.3,3.5,0.4c16.7,11.6,36.3,17.8,56.7,17.8c13.5,0,26.6-2.7,38.9-7.9l2.9,6.9c-13.3,5.6-27.4,8.5-41.9,8.5
			c-21.3,0-41.8-6.2-59.3-18l-46.6,17.7C26.9,304.9,26.4,305,26,305z"/>
		<path class="st2" d="M133.3,307.3c-21.3,0-41.9-6.1-59.6-17.7l-45.5,17.3c-2.3,0.9-4.8,0.3-6.5-1.4c-1.7-1.7-2.2-4.2-1.4-6.5
			l18.1-47c-9.1-16.1-13.8-34.3-13.8-52.7c0-59.5,48.8-107.9,108.7-107.9c59.9,0,108.7,48.4,108.7,107.9c0,5.5-0.4,11.1-1.2,16.5
			l-0.4,2.3l-12-1.8l0.4-2.3c0.7-4.8,1.1-9.7,1.1-14.7c0-52.8-43.3-95.8-96.5-95.8c-53.2,0-96.5,43-96.5,95.8
			c0,17.3,4.7,34.2,13.6,49c1,1.6,1.1,3.6,0.5,5.3l-14.3,37l35.7-13.6c1.9-0.7,4-0.5,5.6,0.7c16.3,11.3,35.4,17.3,55.4,17.3
			c13.2,0,25.9-2.6,38-7.7l2.1-0.9l4.8,11.2l-2.1,0.9C162.5,304.4,148.1,307.3,133.3,307.3z M74.3,284.4l1,0.7
			c17.2,11.5,37.3,17.6,58.1,17.6c13.4,0,26.4-2.5,38.8-7.4l-1.1-2.7c-12,4.8-24.7,7.2-37.7,7.2c-20.9,0-41-6.3-58-18.2
			c-0.4-0.3-0.9-0.3-1.3-0.2l-45.5,17.3l18-46.7c0.2-0.4,0.1-0.9-0.1-1.3c-9.3-15.5-14.3-33.3-14.3-51.4
			c0-55.4,45.4-100.4,101.2-100.4c55.8,0,101.2,45,101.2,100.4c0,4.4-0.3,8.8-0.8,13.1l2.9,0.4c0.6-4.5,0.9-9,0.9-13.5
			c0-57-46.7-103.3-104.1-103.3C75.9,96,29.2,142.4,29.2,199.3c0,18,4.8,35.8,13.8,51.4l0.6,1l-18.9,49c-0.2,0.5-0.1,1.1,0.3,1.5
			c0.4,0.4,1,0.5,1.5,0.3L74.3,284.4z"/>
	</g>
	<path class="st9" d="M134.2,147.7c-16.2,0.4-29.3,10.2-28.9,29.5h19.5c0-6.1,4.3-8.7,8.9-8.9c4.3,0,9.1,2.3,8.9,7.2
		c-0.9,15-21,18.4-18.9,38.8h23.1c-1-15.5,18.2-19.9,18.2-39.2C164.9,160,153.2,147.3,134.2,147.7z"/>
	<path class="st9" d="M135.2,222.8c-7.3,0-13,4.7-13,12c0,7.2,5.7,11.7,13,11.7c7.3,0,12.6-4.6,12.6-11.7
		C147.8,227.5,142.5,222.8,135.2,222.8z"/>
	<g class="st1">
		<g>
			<path class="st8" d="M283.9,330.6c-1.1,0-2.1-0.5-2.8-1.3L268,314.5h-85.9c-6.7,0-12.1-5.4-12.1-12.1v-79.1
				c0-6.7,5.4-12.1,12.1-12.1h129.3c6.7,0,12.1,5.4,12.1,12.1v79.1c0,6.7-5.4,12.1-12.1,12.1h-11.6l-13,14.9
				C286,330.2,285,330.6,283.9,330.6L283.9,330.6z"/>
		</g>
		<g>
			<path class="st19" d="M283.9,335c-2.3,0-4.6-1-6.1-2.8L266,318.9h-84c-9.1,0-16.5-7.4-16.5-16.5v-79.1c0-9.1,7.4-16.5,16.5-16.5
				h129.3c9.1,0,16.5,7.4,16.5,16.5v79.1c0,9.1-7.4,16.5-16.5,16.5h-9.6L290,332.2C288.5,334,286.2,335,283.9,335z M182.1,215.5
				c-4.3,0-7.7,3.5-7.7,7.7v79.1c0,4.3,3.5,7.7,7.7,7.7H270l13.9,15.8l13.9-15.8h13.6c4.3,0,7.8-3.5,7.8-7.7v-79.1
				c0-4.3-3.5-7.7-7.8-7.7H182.1z"/>
		</g>
	</g>
	<path class="st9" d="M285,271.9c-6.4,0-11.7-5.2-11.7-11.7c0-6.4,5.2-11.7,11.7-11.7s11.7,5.2,11.7,11.7
		C296.6,266.7,291.4,271.9,285,271.9z"/>
	<path class="st9" d="M246.7,271.9c-6.4,0-11.7-5.2-11.7-11.7c0-6.4,5.2-11.7,11.7-11.7c6.4,0,11.7,5.2,11.7,11.7
		C258.4,266.7,253.1,271.9,246.7,271.9z"/>
	<path class="st9" d="M208.5,271.9c-6.4,0-11.6-5.2-11.6-11.7c0-6.4,5.2-11.7,11.6-11.7c6.4,0,11.7,5.2,11.7,11.7
		C220.1,266.7,214.9,271.9,208.5,271.9z"/>
</g>
<g id="Features" class="st0">
	<path class="st9" d="M168.9,236.6l-28.1-28.1c-5.5-5.5-10.1-12.3-1.9-20.5c2.3-2.3,5.2-3.3,8-4.2c4.6-1.6,6.5-2.5,7.4-5.6
		c0.7-2.5-1.2-7.7-5.7-12.1c-4.5-4.7-9.7-6.6-12.2-5.9c-3.1,0.9-4.1,2.9-5.6,7.4c-0.9,2.8-1.9,5.7-4.2,8c-8.2,8.2-15,3.6-20.5-1.9
		l-21.8-21.7L169,67l84.7,84.7l-22.8,22.8c-0.9,0.9-1.6,1.7-2,2.2c0,0,0.1,0.1,0.1,0.1c0.3,0.2,1.9,0.8,3,1.1
		c4.8,1.6,12.8,4.3,15.7,14.2c2.2,7.6-1.3,17.5-9.1,25c-7.4,7.6-17.2,11.2-24.8,9c-9.9-2.9-12.6-10.9-14.2-15.7
		c-0.4-1-0.9-2.6-1.2-3.1c-0.5,0.4-1.2,1-2.2,2L168.9,236.6z"/>
	<path class="st20" d="M147.9,197.1c0.4,0.5,1,1.2,2,2.2l19,19l18.1-18.1c5.5-5.5,12.3-10.1,20.5-1.9c2.3,2.3,3.3,5.2,4.2,8
		c1.6,4.6,2.5,6.5,5.6,7.4c2.5,0.7,7.7-1.2,12.1-5.7c4.7-4.5,6.6-9.7,5.9-12.2c-0.9-3.1-2.9-4.1-7.4-5.6c-2.8-0.9-5.7-1.9-8-4.2
		c-8.2-8.2-3.6-15,1.9-20.5l13.7-13.7L169,85.3l-66.6,66.6l12.6,12.6c0.9,1,1.7,1.6,2.2,2c0,0,0.1-0.1,0.1-0.1
		c0.2-0.3,0.8-1.9,1.1-3c1.6-4.8,4.3-12.8,14.2-15.7c7.7-2.2,17.5,1.4,25,9.1c7.6,7.4,11.2,17.2,9,24.8
		c-2.9,9.9-10.9,12.6-15.7,14.2C149.9,196.3,148.3,196.8,147.9,197.1z"/>
	<path class="st9" d="M249.6,317.6l-69.8-69.8l9.1-9.1l60.7,60.7L261,288c0.6-0.6,1.1-1.2,1.5-1.6c-0.5-0.2-1.5-0.5-2.3-0.8
		c-4.5-1.5-12.1-4.1-14.9-13.5c-2.1-7.3,1.2-16.6,8.6-23.7c7-7.2,16.3-10.6,23.5-8.5c9.4,2.8,12,10.3,13.5,14.9
		c0.3,0.7,0.6,1.7,0.8,2.3c0.4-0.4,0.9-0.8,1.5-1.5l17.3-17.3l-16.5-16.5c-2.9-2.9-5.7-6.2-6-10.3c-0.4-4.8,2.8-7.9,4.3-9.4
		c2.2-2.2,5.1-3.2,7.6-4c4.2-1.4,5.8-2.2,6.6-4.9c0.6-2.1-1.2-6.9-5.2-10.7c-4-4.2-8.8-6-10.9-5.4c-2.7,0.8-3.5,2.4-4.9,6.6
		c-0.9,2.5-1.8,5.4-4,7.6c-7.9,7.9-14.4,3.5-19.7-1.8l-8.5-8.5l9.1-9.1l8.5,8.5c0.6,0.6,1.2,1.1,1.6,1.5c0.2-0.5,0.5-1.5,0.8-2.3
		c1.5-4.5,4.1-12.1,13.5-14.9c7.3-2.1,16.6,1.3,23.7,8.6c7.2,7,10.6,16.3,8.5,23.5c-2.8,9.4-10.3,12-14.8,13.5
		c-0.7,0.2-1.7,0.6-2.3,0.8c0.4,0.4,0.8,0.9,1.4,1.5l25.6,25.6l-26.5,26.5c-5.3,5.3-11.8,9.7-19.7,1.8c-2.2-2.2-3.2-5.1-4-7.6
		c-1.4-4.2-2.2-5.8-4.9-6.6c-2.1-0.6-6.9,1.2-10.8,5.2c-4.2,4-6,8.7-5.3,10.9c0.8,2.7,2.4,3.5,6.6,4.9c2.5,0.9,5.4,1.8,7.6,4
		c7.9,7.9,3.5,14.4-1.8,19.7L249.6,317.6z"/>
	<path class="st9" d="M105.7,360.9L21,276.2l22.8-22.8c0.9-0.9,1.6-1.7,2-2.2c0,0-0.1-0.1-0.1-0.1c-0.3-0.2-1.9-0.8-3-1.1
		c-4.8-1.6-12.8-4.3-15.7-14.2c-2.2-7.6,1.3-17.5,9.1-25c7.4-7.6,17.2-11.2,24.8-9c9.9,2.9,12.6,10.9,14.2,15.7
		c0.4,1,0.9,2.6,1.2,3.1c0.5-0.4,1.2-1,2.2-2l27.2-27.2l28.1,28.1c3.1,3.1,6,6.6,6.4,10.8c0.4,4.9-2.9,8.2-4.4,9.7
		c-2.3,2.3-5.2,3.3-8,4.2c-4.6,1.6-6.5,2.5-7.4,5.6c-0.7,2.5,1.2,7.7,5.7,12.1c4.5,4.7,9.7,6.6,12.2,5.9c3.1-0.9,4.1-2.9,5.6-7.4
		c0.9-2.8,1.9-5.7,4.2-8c1.6-1.6,4.8-4.8,9.7-4.4c4.2,0.3,7.7,3.2,10.8,6.3l21.8,21.7L105.7,360.9z M39.3,276.2l66.4,66.4l66.6-66.6
		l-12.6-12.6c-0.9-0.9-1.7-1.6-2.2-2c0,0-0.1,0.1-0.1,0.1c-0.2,0.3-0.8,1.9-1.1,3c-1.6,4.8-4.3,12.8-14.2,15.7
		c-7.7,2.2-17.5-1.4-25-9.1c-7.6-7.4-11.2-17.2-9-24.8c2.9-9.9,10.9-12.6,15.7-14.2c1-0.4,2.6-0.9,3.1-1.2c-0.4-0.5-1-1.2-2-2.2
		l-19-19l-18.1,18.1c-5.5,5.5-12.3,10.1-20.5,1.9c-2.3-2.3-3.3-5.2-4.2-8c-1.6-4.6-2.5-6.5-5.6-7.4c-2.5-0.7-7.7,1.2-12.1,5.7
		c-4.7,4.5-6.6,9.7-5.9,12.2c0.9,3.1,2.9,4.1,7.4,5.6c2.8,0.9,5.7,1.9,8,4.2c8.2,8.2,3.6,15-1.9,20.5L39.3,276.2z"/>
</g>
<g id="Form" class="st0">
	<g class="st1">
		<path class="st8" d="M78.8,223.3c-1.2,0-2.3-0.3-3.4-1c-1.9-1.2-3-3.2-3-5.5v-32.1h12.8v21.7l16.4-8.2l5.7,11.5l-25.7,12.8
			C80.7,223,79.7,223.3,78.8,223.3z"/>
		
			<rect x="59.5" y="196.1" transform="matrix(0.4472 -0.8944 0.8944 0.4472 -151.7789 175.2821)" class="st8" width="12.8" height="28.7"/>
		<path class="st8" d="M93.5,240.6l-14.7-14.7L64,240.6l-9.1-9.1l19.2-19.2c2.5-2.5,6.6-2.5,9.1,0l19.2,19.2L93.5,240.6z"/>
		<path class="st8" d="M149.3,223.3c-1.2,0-2.3-0.3-3.4-1c-1.9-1.2-3-3.2-3-5.5v-32.1h12.8v21.7l16.4-8.2l5.7,11.5l-25.7,12.8
			C151.3,223,150.3,223.3,149.3,223.3z"/>
		
			<rect x="130.1" y="196.1" transform="matrix(0.4472 -0.8944 0.8944 0.4472 -112.7615 238.4136)" class="st8" width="12.8" height="28.7"/>
		<path class="st8" d="M164,240.6l-14.7-14.7l-14.7,14.7l-9.1-9.1l19.2-19.2c2.5-2.5,6.6-2.5,9.1,0l19.2,19.2L164,240.6z"/>
		<path class="st8" d="M219.9,223.3c-1.2,0-2.3-0.3-3.4-1c-1.9-1.2-3-3.2-3-5.5v-32.1h12.8v21.7l16.4-8.2l5.7,11.5l-25.7,12.8
			C221.9,223,220.9,223.3,219.9,223.3z"/>
		
			<rect x="200.7" y="196.1" transform="matrix(0.4472 -0.8944 0.8944 0.4472 -73.7441 301.5451)" class="st8" width="12.8" height="28.7"/>
		<path class="st8" d="M234.6,240.6l-14.7-14.7l-14.7,14.7l-9.1-9.1l19.2-19.2c2.5-2.5,6.6-2.5,9.1,0l19.2,19.2L234.6,240.6z"/>
		<path class="st2" d="M309.7,281h-19.2v-12.8h19.2c3.5,0,6.4-2.9,6.4-6.4v-96.3c0-3.5-2.9-6.4-6.4-6.4h-19.2v-12.8h19.2
			c10.6,0,19.3,8.6,19.3,19.2v96.3C329,272.4,320.4,281,309.7,281z"/>
		<path class="st2" d="M264.8,281H40.3c-10.6,0-19.2-8.6-19.2-19.2v-96.3c0-10.6,8.6-19.2,19.2-19.2h224.6v12.8H40.3
			c-3.5,0-6.4,2.9-6.4,6.4v96.3c0,3.5,2.9,6.4,6.4,6.4h224.6V281z"/>
		<rect x="271.2" y="127" class="st2" width="12.8" height="173.2"/>
		<rect x="258.4" y="293.8" class="st2" width="38.5" height="12.8"/>
		<rect x="258.4" y="120.6" class="st2" width="38.5" height="12.8"/>
	</g>
</g>
<g id="Gallery" class="st0">
	<path class="st9" d="M320.2,373.4H29.3c-4.7,0-8.6-3.8-8.6-8.6V142.4c0-4.7,3.8-8.6,8.6-8.6h290.9c4.7,0,8.6,3.8,8.6,8.6v222.4
		C328.8,369.5,324.9,373.4,320.2,373.4z M37.9,356.3h273.8V150.9H37.9V356.3z"/>
	<path class="st9" d="M220,112.3l-36.7-36.7l-36.7,36.7l-12.1-12.1l42.8-42.8c3.3-3.3,8.8-3.3,12.1,0l42.8,42.8L220,112.3z"/>
	<path class="st9" d="M260.3,236.5c-18.9,0-34.2-15.4-34.2-34.2s15.3-34.2,34.2-34.2s34.2,15.4,34.2,34.2S279.2,236.5,260.3,236.5z"
		/>
	<path class="st20" d="M260.3,185.1c-9.4,0-17.1,7.7-17.1,17.1s7.7,17.1,17.1,17.1c9.4,0,17.1-7.7,17.1-17.1
		S269.7,185.1,260.3,185.1z"/>
	<path class="st9" d="M320.2,373.4H29.3c-4.7,0-8.6-3.8-8.6-8.6v-25.7c0-2.2,0.8-4.2,2.3-5.8l102.7-111.2c1.6-1.7,3.8-2.7,6.1-2.8
		c2,0,4.6,0.9,6.2,2.5l58.1,58.1l23.9-23.9c3.2-3.2,8.4-3.4,11.8-0.3l94.1,85.6c1.8,1.6,2.8,3.9,2.8,6.3v17.1
		C328.8,369.5,324.9,373.4,320.2,373.4z"/>
	<polygon class="st20" points="37.9,356.3 311.6,356.3 311.6,351.5 226.4,274 208.2,292.1 232.1,316 220,328.1 132.2,240.3 
		37.9,342.5 	"/>
</g>
<g id="General" class="st0">
	<g class="st1">
		<g>
			<path class="st6" d="M295,145.6V232H55.7v-86.5H295z"/>
			<path class="st19" d="M301.3,238.3H49.5v-98.9h251.8V238.3z M62,225.8h226.8v-74H62V225.8z"/>
		</g>
		<g>
			<path class="st6" d="M295,256.7v54.2h-81.6v-54.2H295z"/>
			<path class="st19" d="M301.3,317.1h-94v-66.6h94V317.1z M219.7,304.6h69.1v-41.7h-69.1V304.6z"/>
		</g>
		<rect x="55.9" y="256.3" class="st2" width="100.3" height="13.3"/>
		<rect x="55.5" y="285.2" class="st2" width="60" height="13.3"/>
		<path class="st2" d="M322.8,68.3H28.2c-3.7,0-6.7,3-6.7,6.7v277c0,3.7,3,6.7,6.7,6.7h294.6c3.7,0,6.7-3,6.7-6.7V75
			C329.5,71.3,326.5,68.3,322.8,68.3z M316.1,345.3H34.9V81.6h281.2V345.3z"/>
		<rect x="28.2" y="108.4" class="st2" width="294.6" height="13.4"/>
		<rect x="48.3" y="88.3" class="st2" width="13.4" height="13.4"/>
		<rect x="75.1" y="88.3" class="st2" width="13.4" height="13.4"/>
		<rect x="101.9" y="88.3" class="st2" width="13.4" height="13.4"/>
	</g>
</g>
<g id="General_2" class="st0">
	<g class="st1">
		<g>
			<path class="st6" d="M134.8,168.5v57.3H53.2v-57.3H134.8z"/>
			<path class="st19" d="M141,232h-94v-69.7h94V232z M59.4,219.6h69.1v-44.8H59.4V219.6z"/>
		</g>
		<rect x="162.5" y="168.2" class="st2" width="128.9" height="13.3"/>
		<rect x="162.2" y="197.1" class="st2" width="60" height="13.3"/>
		<g>
			<path class="st6" d="M287.4,255.8V313h-81.6v-57.3H287.4z"/>
			<path class="st19" d="M293.7,319.3h-94v-69.7h94V319.3z M212.1,306.8h69.1V262h-69.1V306.8z"/>
		</g>
		<rect x="51.4" y="255.4" class="st2" width="128.9" height="13.3"/>
		<rect x="51" y="284.3" class="st2" width="60" height="13.3"/>
		<path class="st2" d="M322.5,68.4H27.9c-3.7,0-6.7,3-6.7,6.7v277c0,3.7,3,6.7,6.7,6.7h294.6c3.7,0,6.7-3,6.7-6.7v-277
			C329.2,71.4,326.2,68.4,322.5,68.4z M315.8,345.4H34.6V81.8h281.2V345.4z"/>
		<rect x="27.9" y="108.6" class="st2" width="294.6" height="13.4"/>
		<path class="st2" d="M54.6,101.9L54.6,101.9c-3.7,0-6.7-3-6.7-6.7v0c0-3.7,3-6.7,6.7-6.7h0c3.7,0,6.7,3,6.7,6.7v0
			C61.3,98.9,58.3,101.9,54.6,101.9z"/>
		<path class="st2" d="M81.4,101.9L81.4,101.9c-3.7,0-6.7-3-6.7-6.7v0c0-3.7,3-6.7,6.7-6.7h0c3.7,0,6.7,3,6.7,6.7v0
			C88.1,98.9,85.1,101.9,81.4,101.9z"/>
		<path class="st2" d="M108.2,101.9L108.2,101.9c-3.7,0-6.7-3-6.7-6.7v0c0-3.7,3-6.7,6.7-6.7h0c3.7,0,6.7,3,6.7,6.7v0
			C114.9,98.9,111.9,101.9,108.2,101.9z"/>
	</g>
</g>
<g id="Landing_Page" class="st0">
	<path class="st12" d="M174,244.9c-1.1,0-2.2-0.4-3.1-1.3l-30.3-30.3c-1.2-1.2-1.6-3.1-0.9-4.7c0.7-1.6,2.3-2.7,4-2.7h8.7v-25.3
		c0-3.7-2.4-7-5.9-8.2l-4.1-1.4c-2-0.7-3.2-2.7-2.9-4.8c0.3-2.1,2.2-3.6,4.3-3.6h34.7c9.6,0,17.3,7.8,17.3,17.3v26h13
		c1.8,0,3.4,1.1,4.1,2.8c0.6,1.7,0.2,3.6-1.2,4.8l-34.7,30.3C176.1,244.6,175,244.9,174,244.9z"/>
	<path class="st17" d="M154.1,214.6l20.1,20.1l22.9-20.1h-5.8c-2.4,0-4.3-1.9-4.3-4.3v-30.3c0-4.8-3.9-8.7-8.7-8.7h-20.1
		c1.8,2.7,2.7,6,2.7,9.4v29.6c0,2.4-1.9,4.3-4.3,4.3H154.1z"/>
	<rect x="111.4" y="257.8" class="st9" width="128.9" height="13.3"/>
	<rect x="144.5" y="286.6" class="st9" width="60" height="13.3"/>
	<path class="st9" d="M322.5,68.4H27.9c-3.7,0-6.7,3-6.7,6.7v277c0,3.7,3,6.7,6.7,6.7h294.6c3.7,0,6.7-3,6.7-6.7v-277
		C329.2,71.4,326.2,68.4,322.5,68.4z M315.8,345.4H34.6V81.8h281.2V345.4z"/>
	<rect x="27.9" y="108.6" class="st9" width="294.6" height="13.4"/>
	<path class="st9" d="M54.6,101.9L54.6,101.9c-3.7,0-6.7-3-6.7-6.7v0c0-3.7,3-6.7,6.7-6.7h0c3.7,0,6.7,3,6.7,6.7v0
		C61.3,98.9,58.3,101.9,54.6,101.9z"/>
	<path class="st9" d="M81.4,101.9L81.4,101.9c-3.7,0-6.7-3-6.7-6.7v0c0-3.7,3-6.7,6.7-6.7h0c3.7,0,6.7,3,6.7,6.7v0
		C88.1,98.9,85.1,101.9,81.4,101.9z"/>
	<path class="st9" d="M108.2,101.9L108.2,101.9c-3.7,0-6.7-3-6.7-6.7v0c0-3.7,3-6.7,6.7-6.7h0c3.7,0,6.7,3,6.7,6.7v0
		C114.9,98.9,111.9,101.9,108.2,101.9z"/>
</g>
<g id="Legal__x26__Terms" class="st0">
	<polygon class="st12" points="105.5,296.6 97,289.9 86.6,293.3 80.9,284.1 70.1,283.7 67.8,273.1 57.7,269 59.2,258.3 51.2,251 
		56.3,241.4 51.2,231.9 59.2,224.6 57.7,213.8 67.8,209.8 70.1,199.2 80.9,198.8 86.6,189.6 97,192.9 105.5,186.3 114.1,192.9 
		124.4,189.6 130.1,198.8 141,199.2 143.2,209.8 153.3,213.8 151.8,224.6 159.8,231.8 154.8,241.4 159.8,251 151.8,258.3 153.3,269 
		143.2,273.1 141,283.7 130.1,284.1 124.4,293.3 114.1,289.9 	"/>
	<polygon class="st13" points="99.2,277.5 105.5,282.4 111.9,277.5 119.5,280 123.8,273.1 131.9,272.8 133.5,265 141,261.9 
		139.9,253.9 145.9,248.5 142.1,241.4 145.9,234.3 139.9,228.9 141,220.9 133.5,217.9 131.9,210 123.8,209.7 119.5,202.9 
		111.9,205.4 105.5,200.4 99.2,205.4 91.5,202.9 87.2,209.7 79.2,210 77.5,217.9 70,220.9 71.1,228.9 65.1,234.3 68.9,241.4 
		65.1,248.5 71.1,253.9 70,261.9 77.5,265 79.2,272.8 87.2,273.1 91.5,280 	"/>
	<path class="st9" d="M322.1,123.4H27.4c-3.7,0-6.7,3-6.7,6.7v221c0,3.7,3,6.7,6.7,6.7h294.6c3.7,0,6.7-3,6.7-6.7v-221
		C328.8,126.4,325.8,123.4,322.1,123.4z M315.4,344.4H34.1V136.8h281.2V344.4z"/>
	<rect x="172.5" y="210.5" class="st9" width="116.1" height="13.4"/>
	<rect x="172.5" y="237.2" class="st9" width="116.1" height="13.4"/>
	<rect x="172.5" y="264" class="st9" width="62.5" height="13.4"/>
	<rect x="127.9" y="150.2" class="st9" width="107.1" height="13.4"/>
	<path class="st9" d="M107.8,163.6L107.8,163.6c-3.7,0-6.7-3-6.7-6.7v0c0-3.7,3-6.7,6.7-6.7h0c3.7,0,6.7,3,6.7,6.7v0
		C114.5,160.6,111.5,163.6,107.8,163.6z"/>
	<path class="st9" d="M255.1,163.6L255.1,163.6c-3.7,0-6.7-3-6.7-6.7v0c0-3.7,3-6.7,6.7-6.7h0c3.7,0,6.7,3,6.7,6.7v0
		C261.8,160.6,258.8,163.6,255.1,163.6z"/>
	<path class="st9" d="M305.7,115.4h-12.9V82.8H53.5v32.6H40.5V76.6c0-3.7,3-6.7,6.7-6.7H299c3.7,0,6.7,3,6.7,6.7V115.4z"/>
	<path class="st12" d="M123.7,236c-0.4-1-1.3-1.7-2.4-1.8l-9.9-0.6l-3.8-10.1c-0.4-1-1.4-1.7-2.5-1.7c-1.1,0-2.1,0.7-2.5,1.7
		l-3.8,10.1l-9.9,0.6c-1.1,0.1-2,0.8-2.4,1.8c-0.4,1-0.1,2.1,0.7,2.9l7.8,7.2l-2.4,10.1c-0.3,1.1,0.2,2.2,1,2.8
		c0.9,0.6,2.1,0.7,3,0.1l8.5-5.3l8.5,5.3c0.4,0.3,0.9,0.4,1.4,0.4c0.6,0,1.1-0.2,1.6-0.5c0.9-0.6,1.3-1.7,1-2.8l-2.4-10.1l7.8-7.2
		C123.8,238.1,124.1,237,123.7,236z"/>
	<g class="st1">
		<path class="st2" d="M126.5,318.5c-0.4,0-0.9-0.1-1.3-0.3l-20.2-10.7l-20.2,10.7c-0.8,0.4-1.8,0.4-2.6-0.1
			c-0.8-0.5-1.3-1.4-1.3-2.3v-34.9h5.4v30.5l17.5-9.3c0.8-0.4,1.7-0.4,2.5,0l17.5,9.3v-30.5h5.4v34.9c0,0.9-0.5,1.8-1.3,2.3
			C127.5,318.4,127,318.5,126.5,318.5z"/>
		<path class="st2" d="M126.5,321.4c-0.9,0-1.8-0.2-2.6-0.6l-18.9-10l-18.9,10c-1.7,0.9-3.8,0.8-5.5-0.2c-1.7-1-2.7-2.8-2.7-4.8V278
			h11.2v28.6l13.3-7c1.6-0.9,3.6-0.9,5.2,0l13.3,7V278h11.2v37.8c0,1.9-1,3.8-2.7,4.8C128.5,321.2,127.6,321.4,126.5,321.4z"/>
	</g>
	<path class="st9" d="M105.5,292.9l-8-6.2l-9.6,3.1l-5.4-8.6l-10.1-0.4l-2.1-9.9l-9.4-3.8l1.4-10l-7.5-6.8l4.7-8.9l-4.7-8.9l7.5-6.8
		l-1.4-10l9.4-3.8l2.1-9.9l10.1-0.4l5.4-8.6l9.6,3.1l8-6.2l8,6.2l9.6-3.1l5.4,8.6l10.1,0.4l2.1,9.9l9.4,3.8l-1.4,10l7.5,6.8
		l-4.7,8.9l4.7,8.9l-7.5,6.8l1.4,10l-9.4,3.8l-2.1,9.9l-10.1,0.4l-5.4,8.6l-9.6-3.1L105.5,292.9z M98.6,280.7l6.9,5.4l6.9-5.4
		l8.4,2.7l4.7-7.4l8.8-0.3l1.8-8.6l8.1-3.3l-1.2-8.7l6.5-5.9l-4.1-7.8l4.1-7.8l-6.5-5.9l1.2-8.7l-8.1-3.3l-1.8-8.6l-8.8-0.3
		l-4.7-7.4l-8.4,2.7l-6.9-5.4l-6.9,5.4l-8.4-2.7l-4.7,7.4l-8.8,0.3l-1.8,8.6l-8.1,3.3l1.2,8.7l-6.5,5.9l4.1,7.8l-4.1,7.8l6.5,5.9
		l-1.2,8.7l8.1,3.3l1.8,8.6l8.8,0.3l4.7,7.4L98.6,280.7z"/>
</g>
<g id="Listing" class="st0">
	<rect x="227.8" y="277.7" class="st9" width="41.8" height="12"/>
	<path class="st9" d="M132.2,92.4h12v-12c0-6.6,5.4-12,12-12h143.4v-12H156.1c-13.2,0-23.9,10.7-23.9,23.9V92.4z"/>
	<rect x="96.3" y="172.8" class="st9" width="89.6" height="12"/>
	<rect x="96.3" y="202.2" class="st9" width="89.9" height="12"/>
	<rect x="96.3" y="231.8" class="st9" width="53.8" height="12"/>
	<rect x="96.3" y="143.3" class="st9" width="89.6" height="12"/>
	<path class="st9" d="M305.5,56.6c-13.2,0-23.9,10.7-23.9,23.9v185.3c0,6.6-5.4,12-12,12c-6.6,0-12-5.4-12-12V122.3
		c0-13.2-10.7-23.9-23.9-23.9H84.4c-13.2,0-23.9,10.7-23.9,23.9v136.4l12-0.1V122.3c0-6.6,5.4-12,12-12h128.7c-2,3.5-3.2,7.6-3.2,12
		v197.2h-77.4v12h89.4V122.3c0-6.6,5.4-12,12-12s12,5.4,12,12v143.4c0,13.2,10.7,23.9,23.9,23.9s23.9-10.7,23.9-23.9V80.5
		c0-6.6,5.4-12,12-12c6.6,0,12,5.4,12,12v23.9h-17.9v12h29.9V80.5C329.4,67.3,318.7,56.6,305.5,56.6z"/>
	<g class="st1">
		<path class="st2" d="M72.5,369.7c-28.2,0-51.1-22.9-51.1-51.1c0-28.2,22.9-51.1,51.1-51.1c28.2,0,51.1,22.9,51.1,51.1
			C123.6,346.8,100.7,369.7,72.5,369.7z"/>
		<path class="st3" d="M72.5,276c-23.5,0-42.6,19.1-42.6,42.6s19.1,42.6,42.6,42.6c23.5,0,42.6-19.1,42.6-42.6S96,276,72.5,276z"/>
	</g>
	<g class="st1">
		<path class="st2" d="M74,331.1c-1.8,0-3.5-0.7-4.8-2l-15.6-15.6l9.6-9.6l10.4,10.4l42.7-49.9l10.3,8.9l-47.5,55.5
			c-1.2,1.4-3,2.3-4.9,2.4C74.2,331.1,74.1,331.1,74,331.1z"/>
	</g>
</g>
<g id="Loading" class="st0">
	<polygon class="st21" points="177.2,112.4 144.2,79.5 177.2,46.5 187.1,56.4 164,79.5 187.1,102.5 	"/>
	<path class="st21" d="M175.1,380.5c-84.9,0-154-69.1-154-154c0-66.1,42-124.7,104.6-145.9l4.5,13.3
		c-56.9,19.3-95.1,72.6-95.1,132.6c0,77.2,62.8,140,140,140s140-62.8,140-140s-62.8-140-140-140h-21v-14h21c84.9,0,154,69.1,154,154
		S260,380.5,175.1,380.5z"/>
	<g class="st1">
		
			<rect x="61.8" y="169.6" transform="matrix(0.7071 -0.7071 0.7071 0.7071 -90.6141 136.2201)" class="st7" width="114.7" height="15.7"/>
		<path class="st19" d="M249.7,226l-4.6,4.6L227,212.5h-37.9v-37.9L171,156.5l4.6-4.6c5.2-5.2,5.2-13.6,0-18.8L163.5,121
			c-5.2-5.2-13.6-5.2-18.8,0l-82.1,82.1c-5.2,5.2-5.2,13.6,0,18.8L74.7,234c5.2,5.2,13.6,5.2,18.8,0l4.6-4.6l18.1,18.1h37.9v37.9
			l18.1,18.1l-4.6,4.6c-5.2,5.2-5.2,13.6,0,18.8l12.1,12.1c5.2,5.2,13.6,5.2,18.8,0l82.1-82.1c5.2-5.2,5.2-13.6,0-18.8L268.5,226
			C263.3,220.8,254.9,220.8,249.7,226z M84.1,223.6L73,212.5l81.1-81.1l11.1,11.1L84.1,223.6z M182.1,293.6l-14-14v-46.1H122l-14-14
			l53.1-53.1l14,14v46.1h46.1l14,14L182.1,293.6z"/>
		<polygon class="st6" points="175.1,226.5 175.1,180.4 161.1,166.4 146,233.5 168.1,233.5 168.1,279.6 182.1,293.6 235.2,240.5 
			221.2,226.5 		"/>
	</g>
	
		<rect x="166.8" y="274.6" transform="matrix(0.7071 -0.7071 0.7071 0.7071 -134.1064 241.2201)" class="st16" width="114.7" height="15.7"/>
</g>
<g id="Login__x2F__Signup" class="st0">
	<path class="st21" d="M165,365.2L25.8,329.5c-2.9-0.7-4.9-3.4-4.9-6.3V100.3c0-3,2-5.6,5-6.4l131.1-32.8c4.1-1,8.1,2.1,8.1,6.4
		V365.2z M34,318.1l118,30.2V76L34,105.5V318.1z"/>
	<polygon class="st21" points="230.6,329.7 158.5,329.7 158.5,316.6 217.5,316.6 217.5,244.5 230.6,244.5 	"/>
	<polygon class="st21" points="230.6,139.7 217.5,139.7 217.5,106.9 158.5,106.9 158.5,93.8 230.6,93.8 	"/>
	<path class="st21" d="M204.6,231.4c-0.6,0-1.2-0.1-1.9-0.3c-3-0.9-5-3.8-4.7-6.9c4.6-46.4,31.3-75,71.8-77.8v-13.3
		c0-2.6,1.5-4.9,3.8-6c2.3-1.1,5.1-0.7,7,1l45.9,39.3c1.5,1.2,2.3,3.1,2.3,5s-0.8,3.7-2.3,5l-45.9,39.3c-1.9,1.7-4.7,2.1-7,1
		c-2.3-1.1-3.8-3.4-3.8-6v-13.1c-26.7-0.2-44.3-0.2-59.5,29.2C209.3,230.1,207,231.4,204.6,231.4z"/>
	<path class="st13" d="M264.6,185.5c1.9,0,3.8,0,5.7,0l6.2,0c3.6,0,6.6,2.9,6.6,6.6v5.4l29.2-25.1L283,147.4v5.4
		c0,3.6-2.9,6.6-6.6,6.6c-28,0-48.4,13.6-58.6,38.1C231.8,186.5,247.9,185.5,264.6,185.5z"/>
</g>
<g id="Modal__x2F__PopUp" class="st0">
	<g class="st1">
		<path class="st19" d="M289.8,331.1l-231,0c-21.2,0-38.5-17.3-38.5-38.5l0-12.8l308,0v12.8C328.3,313.9,311.1,331.1,289.8,331.1z
			 M33.2,292.6c0,14.2,11.5,25.7,25.7,25.7l231,0c14.2,0,25.7-11.5,25.7-25.7L33.2,292.6z"/>
		<path class="st19" d="M124.7,248.7c-1.5,0-3-0.3-4.5-0.9c-4.4-1.8-7.2-6.1-7.2-10.8l0-17.8c-14.7-0.6-26.4-12.7-26.4-27.5l0-68.6
			c0-15.2,12.3-27.5,27.5-27.5l121.4,0c15.2,0,27.5,12.3,27.5,27.5v68.6c0,15.2-12.4,27.5-27.5,27.5l-76.5,0l-26.1,26
			C130.7,247.5,127.7,248.7,124.7,248.7z"/>
		<path class="st3" d="M114.1,108.4c-8.1,0-14.7,6.6-14.7,14.7l0,68.6c0,8.1,6.6,14.7,14.7,14.7l5.3,0c3.5,0,6.4,2.9,6.4,6.4l0,21.4
			l26-26c1.2-1.2,2.8-1.9,4.5-1.9l79.2,0c8.1,0,14.7-6.6,14.7-14.7l0-68.6c0-8.1-6.6-14.7-14.7-14.7L114.1,108.4z"/>
		<g>
			<path class="st19" d="M156.3,150.6c-0.8,0-1.5,0.3-2,0.8l-4.4,4.4c-1.1,1.1-1.1,2.9,0,4l15.5,15.5c0.5,0.5,1.3,0.8,2,0.8
				c0.8,0,1.6-0.3,2.1-0.9l32.5-35c1-1.1,1-2.9-0.1-4v0l-4.4-4.4c-0.5-0.5-1.2-0.9-2.1-0.8c-0.7,0-1.5,0.4-2,0.9l-25.9,28.5
				l-9.1-9.1C157.8,150.9,157.1,150.6,156.3,150.6L156.3,150.6z"/>
		</g>
		<path class="st19" d="M58.8,273.4l-12.8,0l0-115.5c0-6.9,2.7-13.3,7.5-18.1c4.8-4.9,11.3-7.5,18.2-7.5H77l0,12.8h-5.3
			c-3.4,0-6.7,1.3-9.1,3.8c-2.4,2.4-3.8,5.6-3.8,9.1L58.8,273.4z"/>
		<rect x="155.1" y="299" class="st19" width="38.5" height="12.8"/>
		<path class="st19" d="M302.7,273.4h-12.8l0-115.5c0-3.4-1.3-6.6-3.8-9.1c-2.4-2.4-5.6-3.8-9.1-3.8h-9.6v-12.8h9.6
			c6.9,0,13.3,2.7,18.2,7.5c4.8,4.9,7.5,11.3,7.5,18.1L302.7,273.4z"/>
	</g>
</g>
<g id="Payment" class="st0">
	<polygon class="st21" points="222.2,337.7 161,276.6 196.2,241.4 222.2,267.4 293.6,195.9 328.8,231.1 	"/>
	<polygon class="st13" points="179.4,276.6 222.2,319.4 310.4,231.1 293.6,214.3 222.2,285.8 196.2,259.8 	"/>
	<path class="st21" d="M150.7,296.1H47.3c-14.3,0-26.5-11.9-26.5-26.1V114.2c0-14.3,11.9-26,26.5-26h240.4c14.3,0,25.5,11.4,25.5,26
		v78h-13v-78c0-7.3-5.5-13-12.5-13H47.3c-7.3,0-13.5,6-13.5,13V270c0,7.1,6.2,13.1,13.5,13.1h103.5V296.1z"/>
	<rect x="27.3" y="127.2" class="st21" width="279.3" height="13"/>
	<rect x="27.3" y="166.1" class="st21" width="279.3" height="13"/>
	<rect x="46.8" y="192.1" class="st21" width="45.5" height="13"/>
</g>
<g id="Portfolio" class="st0">
	<path class="st9" d="M322.4,213.9h-38.9l24.8-34.8c1.4-2,1.6-4.5,0.5-6.7s-3.3-3.5-5.7-3.5h-41.6l15.4-36c0.9-2,0.6-4.3-0.5-6.1
		c-1.2-1.8-3.2-2.9-5.4-2.9H155.6v-6.4c0-1.7-0.7-3.3-1.9-4.5l-19.2-19.3c-1.2-1.2-2.8-1.9-4.5-1.9H40.1c-10.6,0-19.3,8.6-19.3,19.3
		v205.3c0,10.6,8.6,19.3,19.3,19.3h177.8c9.3,0,16.6-6.4,20-10.1l89.1-94.6c1.1-1.2,1.7-2.8,1.7-4.4v-6.4
		C328.8,216.8,325.9,213.9,322.4,213.9z"/>
	<path class="st16" d="M267.8,213.9h-48c-1.4,0-2.7,0.5-3.9,1.3l-24,18h-80.2c-2,0-3.9,0.9-5.1,2.5l-37.5,48.2l40.4-102h142.1
		c0,0,0,0,0,0c0,0,0,0,0,0h38.8L267.8,213.9z"/>
	<path class="st17" d="M261.3,136.9L247.6,169H105.3c-2.6,0-5,1.6-6,4l-40,101V136.9h89.8H261.3z"/>
	<path class="st16" d="M228.6,317c-3.5,3.8-7.5,6-10.7,6H40.1c-3.5,0-6.4-2.9-6.4-6.4V111.3c0-3.5,2.9-6.4,6.4-6.4h87.2l15.5,15.5
		v3.8H52.9c-3.5,0-6.4,2.9-6.4,6.4v173.2c0,3.5,2.9,6.4,6.4,6.4h9c2,0,3.9-0.9,5.1-2.5l48-61.7h79.2c1.4,0,2.7-0.5,3.9-1.3l24-18
		h91.7L228.6,317z"/>
</g>
<g id="Pricing" class="st0">
	<g class="st1">
		<g>
			<path class="st5" d="M131.2,302.2H27c-1.3,0-2.3-1-2.3-2.3V167.2c0-1.3,1-2.3,2.3-2.3h104.3c1.3,0,2.3,1,2.3,2.3V300
				C133.5,301.2,132.5,302.2,131.2,302.2z"/>
			<path class="st22" d="M121.5,305.9H36.7c-8.6,0-15.6-7-15.6-15.6V176.9c0-8.6,7-15.6,15.6-15.6h84.8c8.6,0,15.6,7,15.6,15.6
				v113.3C137.2,298.9,130.2,305.9,121.5,305.9z M36.7,168.6c-4.6,0-8.4,3.8-8.4,8.4v113.3c0,4.6,3.8,8.4,8.4,8.4h84.8
				c4.6,0,8.4-3.8,8.4-8.4V176.9c0-4.6-3.8-8.4-8.4-8.4H36.7z"/>
		</g>
		<g>
			<path class="st2" d="M57.1,226.9c-3.4-0.3-5.9-1.6-7.7-3.4l2.5-3.6c1.2,1.3,3,2.4,5.2,2.8v-5c-3.3-0.8-7-2.1-7-6.5
				c0-3.3,2.6-6.1,7-6.5v-3h3v3.1c2.6,0.3,4.9,1.3,6.6,2.9l-2.6,3.4c-1.2-1.1-2.6-1.8-4.1-2.1v4.5c3.4,0.8,7.1,2.1,7.1,6.6
				c0,3.6-2.4,6.4-7.1,6.9v2.9h-3V226.9z M57.1,212.7v-3.9c-1.4,0.2-2.2,1-2.2,2.1C54.8,211.8,55.7,212.3,57.1,212.7z M60.1,218.4
				v4.3c1.7-0.3,2.4-1.3,2.4-2.3C62.5,219.4,61.5,218.9,60.1,218.4z"/>
		</g>
		<rect x="51.8" y="246.2" class="st2" width="56" height="5.8"/>
		<rect x="66.1" y="258.7" class="st2" width="26" height="5.8"/>
	</g>
	<g class="st1">
		<g>
			<path class="st5" d="M323.1,302.2H218.8c-1.3,0-2.3-1-2.3-2.3V167.2c0-1.3,1-2.3,2.3-2.3h104.3c1.3,0,2.3,1,2.3,2.3V300
				C325.4,301.2,324.4,302.2,323.1,302.2z"/>
			<path class="st22" d="M313.4,305.9h-84.8c-8.6,0-15.6-7-15.6-15.6V176.9c0-8.6,7-15.6,15.6-15.6h84.8c8.6,0,15.6,7,15.6,15.6
				v113.3C329,298.9,322,305.9,313.4,305.9z M228.5,168.6c-4.6,0-8.4,3.8-8.4,8.4v113.3c0,4.6,3.8,8.4,8.4,8.4h84.8
				c4.6,0,8.4-3.8,8.4-8.4V176.9c0-4.6-3.8-8.4-8.4-8.4H228.5z"/>
		</g>
		<g>
			<path class="st2" d="M248.9,226.9c-3.4-0.3-5.9-1.6-7.7-3.4l2.5-3.6c1.2,1.3,3,2.4,5.2,2.8v-5c-3.3-0.8-7-2.1-7-6.5
				c0-3.3,2.6-6.1,7-6.5v-3h3v3.1c2.6,0.3,4.9,1.3,6.6,2.9l-2.6,3.4c-1.2-1.1-2.6-1.8-4.1-2.1v4.5c3.4,0.8,7.1,2.1,7.1,6.6
				c0,3.6-2.4,6.4-7.1,6.9v2.9h-3V226.9z M248.9,212.7v-3.9c-1.4,0.2-2.2,1-2.2,2.1C246.7,211.8,247.6,212.3,248.9,212.7z
				 M252,218.4v4.3c1.7-0.3,2.4-1.3,2.4-2.3C254.4,219.4,253.4,218.9,252,218.4z"/>
		</g>
		<rect x="243.6" y="246.2" class="st2" width="56" height="5.8"/>
		<rect x="258" y="258.7" class="st2" width="26" height="5.8"/>
	</g>
	<g class="st1">
		<g>
			<path class="st5" d="M269.1,354.1H81.9c-2.3,0-4.1-1.8-4.1-4.1V111.7c0-2.3,1.8-4.1,4.1-4.1h187.2c2.3,0,4.1,1.8,4.1,4.1V350
				C273.2,352.3,271.4,354.1,269.1,354.1z"/>
			<path class="st19" d="M251.6,359.6H99.3c-14.9,0-27-12.1-27-27V129.2c0-14.9,12.1-27,27-27h152.3c14.9,0,27,12.1,27,27v203.4
				C278.7,347.5,266.5,359.6,251.6,359.6z M99.3,113.1c-8.9,0-16.1,7.2-16.1,16.1v203.4c0,8.9,7.2,16.1,16.1,16.1h152.3
				c8.9,0,16.1-7.2,16.1-16.1V129.2c0-8.9-7.2-16.1-16.1-16.1H99.3z"/>
		</g>
		<g>
			<path class="st2" d="M135.9,218.8c-6.1-0.5-10.6-2.9-13.8-6.1l4.5-6.5c2.2,2.3,5.4,4.3,9.3,5v-9c-6-1.5-12.5-3.7-12.5-11.6
				c0-5.9,4.7-10.9,12.5-11.7v-5.4h5.5v5.5c4.7,0.5,8.7,2.3,11.9,5.2l-4.6,6.2c-2.1-1.9-4.7-3.1-7.3-3.8v8
				c6.1,1.5,12.8,3.8,12.8,11.8c0,6.5-4.3,11.5-12.8,12.3v5.2h-5.5V218.8z M135.9,193.3v-7c-2.6,0.4-4,1.7-4,3.7
				C131.9,191.7,133.5,192.6,135.9,193.3z M141.4,203.6v7.8c3-0.6,4.4-2.3,4.4-4.1C145.7,205.4,143.9,204.5,141.4,203.6z"/>
			<path class="st2" d="M160,214.9l3.7-6.3c2.1,2,4.3,3,7.7,3c6.4,0,9.7-5.4,9.7-11c0-0.3,0-0.6,0-0.9c-1.9,2.6-5.8,5-10,5
				c-7,0-13.2-4.4-13.2-12.6c0-7.6,6-13.3,14.9-13.3c11.8,0,16.8,9.1,16.8,20c0,11.8-6.6,20.1-18.1,20.1
				C166.7,218.9,162.7,217.3,160,214.9z M181.1,194c-0.4-3.7-2.4-7.9-7.9-7.9c-4.5,0-6.9,3-6.9,5.7c0,4.1,3.6,5.8,7.2,5.8
				C176.4,197.6,179.2,196.3,181.1,194z"/>
			<path class="st2" d="M195.4,214.9l3.7-6.3c2.1,2,4.3,3,7.7,3c6.4,0,9.7-5.4,9.7-11c0-0.3,0-0.6,0-0.9c-1.9,2.6-5.8,5-10,5
				c-7,0-13.2-4.4-13.2-12.6c0-7.6,6-13.3,14.9-13.3c11.8,0,16.8,9.1,16.8,20c0,11.8-6.6,20.1-18.1,20.1
				C202.1,218.9,198.2,217.3,195.4,214.9z M216.5,194c-0.4-3.7-2.4-7.9-7.9-7.9c-4.5,0-6.9,3-6.9,5.7c0,4.1,3.6,5.8,7.2,5.8
				C211.9,197.6,214.7,196.3,216.5,194z"/>
		</g>
		<rect x="126.4" y="253.5" class="st2" width="100.5" height="10.4"/>
		<rect x="152.2" y="276" class="st2" width="46.8" height="10.4"/>
	</g>
	<g class="st1">
		<path class="st2" d="M246.9,156c-24.5,0-44.4-19.9-44.4-44.4s19.9-44.4,44.4-44.4c24.5,0,44.4,19.9,44.4,44.4S271.5,156,246.9,156
			z"/>
		<path class="st8" d="M246.9,74.5c-20.4,0-37,16.6-37,37s16.6,37,37,37c20.4,0,37-16.6,37-37S267.4,74.5,246.9,74.5z"/>
		<g>
			<path class="st2" d="M232.2,108.6c-0.6,0-1.1,0.2-1.5,0.6l-3.4,3.4c-0.8,0.8-0.8,2.2,0,3.1l11.7,11.7c0.4,0.4,1,0.6,1.5,0.6
				c0.6,0,1.2-0.3,1.6-0.7l24.6-26.5c0.8-0.9,0.8-2.2-0.1-3v0l-3.3-3.3c-0.4-0.4-0.9-0.7-1.6-0.6c-0.6,0-1.1,0.3-1.5,0.7l-19.6,21.6
				l-6.9-6.9C233.3,108.8,232.8,108.6,232.2,108.6L232.2,108.6z"/>
		</g>
	</g>
</g>
<g id="Product:_Clothing">
	<g>
		<path class="st2" d="M264.6,69.7c-7.1-13.5-17-25.6-29.6-35.2c-17.4-13.2-38.2-20.2-60-20.2c-21.8,0-42.6,7-60,20.2
			c-12.6,9.6-22.5,21.7-29.6,35.2H74.8L39.3,86.2C29.4,90.8,23,100.9,23,111.8v274c0,15.6,12.7,28.2,28.2,28.2h247.4
			c15.6,0,28.2-12.7,28.2-28.2V112c0-11.1-6.5-21.2-16.6-25.7l-36.6-16.5H264.6z"/>
		<path class="st2" d="M298.6,416.1H51.2c-16.7,0-30.3-13.6-30.3-30.3v-274c0-11.7,6.9-22.5,17.5-27.5l35.9-16.7H84
			c7.5-13.8,17.4-25.5,29.6-34.8c17.8-13.5,38.9-20.6,61.2-20.6c22.3,0,43.5,7.1,61.3,20.6c12.2,9.2,22.2,20.9,29.6,34.8h8.2
			l37,16.7c10.8,4.9,17.8,15.7,17.8,27.6v273.8C328.9,402.5,315.3,416.1,298.6,416.1z M75.2,71.8L40.2,88.1
			c-9.2,4.3-15.1,13.6-15.1,23.7v274c0,14.4,11.7,26.1,26.1,26.1h247.4c14.4,0,26.1-11.7,26.1-26.1V112c0-10.3-6-19.6-15.4-23.8
			l-36.2-16.3h-9.8l-0.6-1.1c-7.2-13.8-17-25.4-29.1-34.5c-17-12.9-37.4-19.8-58.7-19.8c-21.4,0-41.7,6.8-58.7,19.7
			c-12,9.1-21.8,20.7-29.1,34.5l-0.6,1.1H75.2z"/>
	</g>
	<g>
		<path class="st6" d="M101.8,69.7c5.7-9,13-17.1,21.8-23.7c14.9-11.3,32.6-17.2,51.3-17.2c18.7,0,36.4,6,51.3,17.2
			c8.8,6.7,16.1,14.7,21.8,23.7c2.9,4.6,5.4,9.4,7.5,14.4c5.3,13,7.8,27.2,6.6,41.8l-6.5,82.8l-48.2-33.4
			c22.7-33,34.4-56.8,34.4-70.7c0-7.2-1.6-14.1-4.3-20.5c-2.2-5.2-5.3-10-9.1-14.4c-12.2-14.2-31.6-23.5-53.4-23.5
			c-21.8,0-41.2,9.3-53.4,23.5c-3.8,4.4-6.8,9.2-9.1,14.4c-2.8,6.4-4.3,13.3-4.3,20.5c0,13.9,11.6,37.7,34.4,70.6l-48.2,33.4
			l-6.5-82.8c-1.1-14.5,1.3-28.8,6.6-41.8C96.4,79.1,98.9,74.3,101.8,69.7z"/>
	</g>
	<g>
		<path class="st5" d="M191.4,173.2h-32.9c-0.6-0.8-1.1-1.5-1.6-2.3c0,0,0,0,0-0.1c-21.8-31.2-34.3-55.1-34.3-66.1
			c0-7.4,2.2-14.4,6.1-20.5c3.6-5.7,8.6-10.6,14.6-14.4c8.8-5.7,19.8-9.1,31.7-9.1c11.9,0,22.9,3.4,31.7,9.1c6,3.9,11,8.8,14.6,14.4
			c3.9,6.1,6.1,13.1,6.1,20.5c0,5.3-3.5,22.1-34.4,66.2c-0.3,0.4-0.6,0.9-0.9,1.3C191.8,172.5,191.6,172.8,191.4,173.2z"/>
	</g>
	<g>
		<path class="st5" d="M37.4,385.8v-274c0-5.4,3.1-10.3,8-12.5L78,84.1h1c-4.7,13.5-6.8,28.1-5.6,42.9l7.4,95.3
			c0.2,2.6,1.8,4.8,4.1,5.9c2.3,1.1,5.1,0.9,7.2-0.6l32.5-22.5l24.5,38.5l-39.6,155.9H51.2C43.6,399.6,37.4,393.4,37.4,385.8z"/>
	</g>
	<g>
		<polygon class="st5" points="124.4,399.6 164.6,241.2 139.7,202.1 158.6,187.6 188.5,187.6 207.4,202.1 182.5,241.2 223.1,399.6 
					"/>
	</g>
	<g>
		<path class="st5" d="M312.4,112v273.8c0,7.6-6.2,13.8-13.8,13.8H238l-40-155.9l25.3-39.7l34.3,23.8c1.2,0.9,2.7,1.3,4.1,1.3
			c1.1,0,2.1-0.2,3.1-0.7c2.3-1.1,3.9-3.4,4.1-5.9l7.4-95.3c1.2-14.8-0.9-29.2-5.6-42.7l33.4,15.1
			C309.2,101.6,312.4,106.5,312.4,112z"/>
	</g>
</g>
</svg>
