<?xml version="1.0" encoding="utf-8"?>
<!-- Generator: Adobe Illustrator 20.0.0, SVG Export Plug-In . SVG Version: 6.00 Build 0)  -->
<svg version="1.2" baseProfile="tiny" id="Layer_1" xmlns="http://www.w3.org/2000/svg" xmlns:xlink="http://www.w3.org/1999/xlink"
	 x="0px" y="0px" viewBox="0 0 82 13" xml:space="preserve">
<g>
	<path fill="#637180" d="M8.8,4.8C8.5,4.8,7,4.7,5.4,4.6c-2.7,3.8-4.1,7.5-4.1,7.5c-0.9,0-0.9-0.8-0.7-1.3C0.8,10.6,2.7,7,4.1,4.6
		C2.7,4.5,1.6,4.5,1.5,4.5c-0.2,0-0.2-1.1,0.3-1.1c0,0,1.5,0,3.1,0c0.3-0.5,0.6-0.8,0.7-0.9c0.2-0.1,0.5,0.4,0.6,0.9
		c1.3,0,2.6,0,2.8,0C9.6,3.4,9.4,4.9,8.8,4.8z"/>
	<path fill="#637180" d="M14.2,8.7c0,0-2.5,2.1-3.3,2c-0.9,0-0.9-0.8-0.7-1.3c0.1-0.2,0.6-1,1.1-1.7c-1.1,0.2-2.9,0.9-3.8,3
		c-0.9,0-0.9-0.8-0.7-1.3C7,9.1,11.3,1.1,12,0.8c0.3-0.1,0.9,1.3,0.6,1.7c-1.7,2.1-3,4.2-3.9,5.7c1-0.9,2.4-1.8,3.5-1.5
		c0.4-0.1,0.9,0.5,0.6,0.9c0,0-1.8,2.2-1.6,2.5c0.2,0.2,2.2-1.5,3.3-2.5C14.8,7.3,14.2,8.7,14.2,8.7z"/>
	<path fill="#637180" d="M18.5,8.7c0,0-3.1,2.7-4,2.7c-0.7,0-1.6-0.8-1.1-2.1c1-2.6,2.8-3.1,3.3-3.2c0.3-0.1,0.8,0,0.9,0.2
		c0.1,0.1,0.1,0.2,0.1,0.3c0,1-0.3,1.7-1.2,2.3c-0.4,0.3-1.3,0.4-1.7,0.4c-0.3,0.7-0.4,1.3-0.3,1.3c0.5,0.1,3.5-2.4,4.1-2.9
		C19,7.2,18.5,8.7,18.5,8.7z M15.2,8.5c0.2,0,0.6,0,1-0.2C17,7.8,16.9,7,16.9,6.9C16.2,7.2,15.6,7.8,15.2,8.5z"/>
	<path fill="#637180" d="M27.2,4.8c-0.3,0-1.8-0.1-3.3-0.2c-2.7,3.8-4.1,7.5-4.1,7.5c-0.9,0-0.9-0.8-0.7-1.3
		c0.1-0.3,2.1-3.9,3.5-6.3c-1.4-0.1-2.5-0.1-2.6-0.1c-0.2,0-0.2-1.1,0.3-1.1c0,0,1.5,0,3.1,0c0.3-0.5,0.6-0.8,0.7-0.9
		c0.2-0.1,0.5,0.4,0.6,0.9c1.3,0,2.6,0,2.8,0C28,3.4,27.8,4.9,27.2,4.8z"/>
	<path fill="#637180" d="M29,8.7c0,0-2.5,2.1-3.3,2c-0.9,0-0.9-0.8-0.7-1.3c0.2-0.4,1.6-2.7,1.9-2.8c0.4-0.1,0.9,0.5,0.6,0.9
		c0,0-1.8,2.2-1.6,2.5c0.2,0.2,2.2-1.5,3.3-2.5C29.5,7.3,29,8.7,29,8.7z M29.2,4.6c-0.1,0.3-0.8,1.3-1,1.5c-0.3,0.3-0.8-0.1-0.8-0.4
		c0-0.2,0.8-1.5,0.9-1.9C28.4,3.6,29.3,4.3,29.2,4.6z"/>
	<path fill="#637180" d="M39.1,8.2c0,0-1.8,1.8-3.4,1.8c-0.9,0-0.9-0.8-0.7-1.3c0.1-0.2,0.4-0.7,0.8-1.3c-1.2,1.1-2.8,2.6-3.8,3.1
		c-0.4,0.2-1-0.5-0.6-1.1c0.1-0.2,0.4-0.8,0.8-1.5c-1.1,0.9-2.9,2.6-3.9,3.2c-0.7,0.5-1-0.7-0.8-1.2c0.2-0.4,1.6-2.7,2-2.8
		C30,7.1,30.5,7.7,30.2,8c0,0-1.2,1.5-0.9,1.3c0.9-0.5,3.1-2.2,4.2-3.2c0,0,0.1-0.1,0.2-0.1c0.4,0.1,0.9,0.5,0.6,0.9
		c0,0-1.8,2.4-1.5,2.2c0.8-0.6,3-2.3,4.1-3.1c0,0,0.1-0.1,0.2-0.1c0.3,0,0.8,0.5,0.5,0.9c0,0-1.9,2.3-1.6,2.5c0.4,0.3,2-1.1,3.1-2.1
		C39.4,7,39.1,8.2,39.1,8.2z"/>
	<path fill="#637180" d="M43.6,2.5c-1.3,1.6-2.4,3.3-3.2,4.6c0.7-0.8,1.5-1.4,2.2-1.1c1.3,0.7,1,2.1,0.2,3.5
		c-0.9,1.4-2.3,1.7-3.2,1.3c-0.4-0.2-0.7-0.5-0.6-1c-0.3,0.6-0.4,0.9-0.4,0.9c-0.9,0-0.9-0.8-0.7-1.3C38,9.1,42.3,1.1,43,0.8
		C43.3,0.7,43.9,2.2,43.6,2.5z M40.5,8.1c-0.9,1.2-1,1.8-0.7,2c0.3,0.2,1.2-0.4,1.7-1.3C42,8.1,42.6,7,42.1,6.6
		C41.9,6.4,41.1,7.3,40.5,8.1z"/>
	<path fill="#637180" d="M43.2,9.5c0.2-0.4,4.5-8.3,5.2-8.6c0.3-0.1,0.9,1.3,0.6,1.7c-3.4,4.2-5.1,8.3-5.1,8.3
		C43,10.7,43,10,43.2,9.5z"/>
	<path fill="#637180" d="M50.2,8.7c0,0-3.1,2.7-4,2.7c-0.7,0-1.6-0.8-1.1-2.1c1-2.6,2.8-3.1,3.3-3.2c0.3-0.1,0.8,0,0.9,0.2
		c0.1,0.1,0.1,0.2,0.1,0.3c0,1-0.3,1.7-1.2,2.3c-0.4,0.3-1.3,0.4-1.7,0.4c-0.3,0.7-0.4,1.3-0.3,1.3c0.5,0.1,3.5-2.4,4.1-2.9
		C50.7,7.2,50.2,8.7,50.2,8.7z M46.9,8.5c0.2,0,0.6,0,1-0.2c0.9-0.5,0.8-1.3,0.7-1.3C47.9,7.2,47.3,7.8,46.9,8.5z"/>
	<path fill="#637180" d="M54.5,8.7c0,0-3.1,2.7-4,2.7c-0.7,0-1.6-0.8-1.1-2.1c1-2.6,2.8-3.1,3.3-3.2c0.3-0.1,0.8,0,0.9,0.2
		c0.1,0.1,0.1,0.2,0.1,0.3c0,1-0.3,1.7-1.2,2.3c-0.4,0.3-1.3,0.4-1.7,0.4c-0.3,0.7-0.4,1.3-0.3,1.3c0.5,0.1,3.5-2.4,4.1-2.9
		C55,7.2,54.5,8.7,54.5,8.7z M51.2,8.5c0.2,0,0.6,0,1-0.2C53,7.8,52.9,7,52.9,6.9C52.2,7.2,51.6,7.8,51.2,8.5z"/>
	<path fill="#637180" d="M63.2,4.8c-0.3,0-1.8-0.1-3.3-0.2c-2.7,3.8-4.1,7.5-4.1,7.5c-0.9,0-0.9-0.8-0.7-1.3
		c0.1-0.3,2.1-3.9,3.5-6.3c-1.4-0.1-2.5-0.1-2.6-0.1c-0.2,0-0.2-1.1,0.3-1.1c0,0,1.5,0,3.1,0c0.3-0.5,0.6-0.8,0.7-0.9
		c0.2-0.1,0.5,0.4,0.6,0.9c1.3,0,2.6,0,2.8,0C64,3.4,63.8,4.9,63.2,4.8z"/>
	<path fill="#637180" d="M65.2,8.7c0,0-3.1,2.7-4,2.7c-0.7,0-1.6-0.8-1.1-2.1c1-2.6,2.8-3.1,3.3-3.2c0.3-0.1,0.8,0,0.9,0.2
		c0.1,0.1,0.1,0.2,0.1,0.3c0,1-0.3,1.7-1.2,2.3c-0.4,0.3-1.3,0.4-1.7,0.4c-0.3,0.7-0.4,1.3-0.3,1.3c0.5,0.1,3.5-2.4,4.1-2.9
		C65.8,7.2,65.2,8.7,65.2,8.7z M61.9,8.5c0.2,0,0.6,0,1-0.2c0.9-0.5,0.8-1.3,0.7-1.3C62.9,7.2,62.3,7.8,61.9,8.5z"/>
	<path fill="#637180" d="M71.2,8.7c0,0-2.5,2.1-3.3,2c-0.4,0-0.6-0.2-0.7-0.4c-0.6,0.5-1.3,0.8-1.8,0.5c-1.2-0.8-0.8-2.2,0.1-3.5
		c1-1.3,2.4-1.5,3.3-1c0.2,0.1,0.3,0.2,0.4,0.3c0.4,0,0.9,0.5,0.6,0.9c0,0-1.8,2.2-1.6,2.5c0.2,0.2,2.2-1.5,3.3-2.5
		C71.7,7.3,71.2,8.7,71.2,8.7z M67.3,9.2c0.3-0.4,0.8-1.2,1.2-1.8c0-0.1,0-0.2-0.1-0.3c-0.3-0.2-1.2,0.3-1.8,1.1
		c-0.5,0.6-1.3,1.7-0.8,2.1C66,10.5,66.7,9.8,67.3,9.2z"/>
	<path fill="#637180" d="M81.4,8.2c0,0-1.8,1.8-3.4,1.8c-0.9,0-0.9-0.8-0.7-1.3c0.1-0.2,0.4-0.7,0.8-1.3c-1.2,1.1-2.8,2.6-3.8,3.1
		c-0.4,0.2-1-0.5-0.6-1.1c0.1-0.2,0.4-0.8,0.8-1.5c-1.1,0.9-2.9,2.6-3.9,3.2c-0.7,0.5-1-0.7-0.8-1.2c0.2-0.4,1.6-2.7,2-2.8
		c0.4-0.1,0.9,0.5,0.6,0.9c0,0-1.2,1.5-0.9,1.3c0.9-0.5,3.1-2.2,4.2-3.2c0,0,0.1-0.1,0.2-0.1c0.4,0.1,0.9,0.5,0.6,0.9
		c0,0-1.8,2.4-1.5,2.2c0.8-0.6,3-2.3,4.1-3.1c0,0,0.1-0.1,0.2-0.1c0.3,0,0.8,0.5,0.5,0.9c0,0-1.9,2.3-1.6,2.5c0.4,0.3,2-1.1,3.1-2.1
		C81.6,7,81.4,8.2,81.4,8.2z"/>
</g>
</svg>
