<svg id="Layer_1" data-name="Layer 1" xmlns="http://www.w3.org/2000/svg" viewBox="0 0 163.17 144.24"><defs><style>.cls-1{fill:#d5d7da;}</style></defs><title>Timblee-icon</title><path class="cls-1" d="M152.9,0H10.27A10.27,10.27,0,0,0,0,10.25V134a10.27,10.27,0,0,0,10.27,10.25H152.9A10.27,10.27,0,0,0,163.17,134V10.25A10.27,10.27,0,0,0,152.9,0ZM56.6,13.75H151A3.13,3.13,0,0,1,151,20H56.6a3.13,3.13,0,0,1,0-6.26ZM34,10a6.83,6.83,0,1,1-6.83,6.83A6.83,6.83,0,0,1,34,10ZM15.9,10a6.83,6.83,0,1,1-6.83,6.83A6.83,6.83,0,0,1,15.9,10ZM154.07,134a1.16,1.16,0,0,1-1.17,1.15H10.27A1.16,1.16,0,0,1,9.1,134V38.69h145Z"/><path class="cls-1" d="M125.13,76.89a5.16,5.16,0,0,0-7.24-.94A60.27,60.27,0,0,1,45,76.38a5.16,5.16,0,0,0-6.2,8.25,70.59,70.59,0,0,0,85.42-.51,5.16,5.16,0,0,0,.94-7.24Z"/></svg>