<?xml version="1.0" encoding="utf-8"?>
<!-- Generator: Adobe Illustrator 20.0.0, SVG Export Plug-In . SVG Version: 6.00 Build 0)  -->
<svg version="1.2" baseProfile="tiny" id="Layer_1" xmlns="http://www.w3.org/2000/svg" xmlns:xlink="http://www.w3.org/1999/xlink"
	 x="0px" y="0px" viewBox="0 0 24 18" xml:space="preserve">
<g>
	<g>
		<g>
			<path fill="#A4ADB6" d="M23.4,17.9H0.6c-0.3,0-0.5-0.2-0.5-0.5V0.6c0-0.3,0.2-0.5,0.5-0.5h22.8c0.3,0,0.5,0.2,0.5,0.5v16.8
				C23.9,17.7,23.7,17.9,23.4,17.9z M1.1,16.9h21.8V1.1H1.1V16.9z"/>
		</g>
		<g>
			<path fill="#A4ADB6" d="M23,6.9H1c-0.3,0-0.5-0.2-0.5-0.5c0-0.3,0.2-0.5,0.5-0.5H23c0.3,0,0.5,0.2,0.5,0.5
				C23.5,6.7,23.3,6.9,23,6.9z"/>
		</g>
		<path fill="#A4ADB6" d="M3.5,2.4c-0.6,0-1.1,0.5-1.1,1.1c0,0.6,0.5,1.1,1.1,1.1c0.6,0,1.1-0.5,1.1-1.1C4.6,2.9,4.2,2.4,3.5,2.4
			L3.5,2.4z"/>
		<path fill="#A4ADB6" d="M6.7,2.4c-0.6,0-1.1,0.5-1.1,1.1c0,0.6,0.5,1.1,1.1,1.1s1.1-0.5,1.1-1.1C7.8,2.9,7.3,2.4,6.7,2.4L6.7,2.4z
			"/>
		<path fill="#A4ADB6" d="M9.9,2.4c-0.6,0-1.1,0.5-1.1,1.1c0,0.6,0.5,1.1,1.1,1.1c0.6,0,1.1-0.5,1.1-1.1C11,2.9,10.5,2.4,9.9,2.4
			L9.9,2.4z"/>
	</g>
</g>
</svg>
